<?xml version="1.0" encoding="UTF-8"?>
<svg width="80px" height="80px" viewBox="0 0 80 80" version="1.1" xmlns="http://www.w3.org/2000/svg" xmlns:xlink="http://www.w3.org/1999/xlink">
    <title>paint_5</title>
    <defs>
        <polygon id="path-1" points="0 0 33.8442988 0 33.8442988 7.22522537 0 7.22522537"></polygon>
        <polygon id="path-3" points="0 0 34.5346503 0 34.5346503 34.8537567 0 34.8537567"></polygon>
    </defs>
    <g id="Contents_ì½˜í…ì¸ " stroke="none" stroke-width="1" fill="none" fill-rule="evenodd">
        <g id="paint_5">
            <rect id="bg-copy" fill="#FFFFFF" opacity="0" x="0" y="0" width="80" height="80"></rect>
            <g transform="translate(12.000000, 14.033066)">
                <g id="Group-18-Copy-4" transform="translate(0.000000, 1.966934)">
                    <polygon id="Fill-1" fill="#D7DED3" points="0 17.2138037 37.4323871 25.0714286 42.8813559 18.88059 8.97059567 11.1428571"></polygon>
                    <polygon id="Fill-2" fill="#D7DED3" points="8.38983051 10.2142857 42.940238 17.6428571 48.4745763 11.9476456 14.5464402 6.5"></polygon>
                    <g id="Group-17" transform="translate(1.864407, 0.000000)">
                        <path d="M13.8127664,4.99568657 C14.0506863,4.75470149 18.5767289,2.0910597 18.5767289,2.0910597 L50.0780922,6.89329851 L46.9216241,10.2676716 L13.8127664,4.99568657 Z" id="Fill-3" fill="#D7DED3"></path>
                        <g id="Group-7" transform="translate(19.291294, 0.000000)">
                            <mask id="mask-2" fill="white">
                                <use xlink:href="#path-1"></use>
                            </mask>
                            <g id="Clip-6"></g>
                            <polygon id="Fill-5" fill="#D7DED3" mask="url(#mask-2)" points="-3.2943184e-13 1.36843433 4.0488596 -1.04005821 33.8442988 3.42903134 30.723135 6.18522537"></polygon>
                        </g>
                        <polygon id="Fill-8" fill="#D7DED3" points="28.1891344 22.9311851 15.3168999 27.1641403 20.689285 30.0745881 31.8177968 23.4775731"></polygon>
                        <g id="Group-12" transform="translate(2.035040, 17.146243)">
                            <mask id="mask-4" fill="white">
                                <use xlink:href="#path-3"></use>
                            </mask>
                            <g id="Clip-11"></g>
                            <polygon id="Fill-10" fill="#D7DED3" mask="url(#mask-4)" points="4.36467909 1.14749254 0 0 11.3739147 13.234194 17.3109758 16.6149701 31.7012928 34.8537761 34.5346503 31.9650597 18.0782675 13.1662836 12.2881795 11.0090597"></polygon>
                        </g>
                        <polygon id="Fill-13" fill="#D7DED3" points="13.4088974 31.2424537 0 39.2496776 2.03517457 40.4103642 16.6599578 33.5671254"></polygon>
                        <polygon id="Fill-15" fill="#D7DED3" points="44.6221857 12.8242672 43.1204123 15.7281179 51.2298356 31.2388642 52.7316091 29.2795507"></polygon>
                    </g>
                </g>
                <g id="Group-26" transform="translate(21.944562, 0.000000)">
                    <g id="Group-25" transform="translate(7.205563, 7.853910)" fill="#B0BBAA">
                        <polygon id="Path-95" points="0 7.47719524 3.9649383 7.47719524 7.86142212 4.53604019 2.5180727 3.55091475"></polygon>
                        <polygon id="Path-96" points="3.16507729 2.22711459 7.50933991 2.81507546 10.8498752 1.11302391 5.84823558 1.11302391 3.9649383 -1.26836411e-16"></polygon>
                    </g>
                    <g id="con_orange" transform="translate(8.571134, 8.966934) rotate(220.000000) translate(-8.571134, -8.966934) translate(3.952395, 1.137015)">
                        <path d="M4.14365934,8.20729836 L2.56832561,9.73644364 L0.838100069,12.8066118 C0.295645211,14.221962 0.0244177827,15.1399856 0.0244177827,15.5606826 C0.0244177827,15.9813795 0.872387058,15.0633559 2.56832561,12.8066118 L4.14365934,11.1866604 L6.26331571,13.7012633 L9.23747855,15.0456369 L7.69616498,11.9335674 L7.69616498,9.73644364 L4.14365934,8.20729836 Z" id="Path-280" fill="#405738"></path>
                        <path d="M4.78238803,4.27951013e-13 C4.48075145,4.27951013e-13 3.58777733,0.281269064 2.10346568,0.843807191 L0.786667399,2.67766378 L-1.38371726e-13,4.13979068 L-1.38371726e-13,5.23889456 L0.366458479,7.28082532 L1.46283753,8.50167473 L3.19070574,9.31567271 L4.78238803,9.31567271 L7.30669666,8.50167473 L8.80998545,6.68198489 L9.21306077,4.65783635 L8.80998545,2.67766378 L6.6820992,0.648424064 C5.71726166,0.216141355 5.08402461,4.27951013e-13 4.78238803,4.27951013e-13 Z" id="Path-281" fill="#E79219"></path>
                    </g>
                </g>
            </g>
        </g>
    </g>
</svg>