<?xml version="1.0" encoding="UTF-8"?>
<svg width="80px" height="80px" viewBox="0 0 80 80" version="1.1" xmlns="http://www.w3.org/2000/svg" xmlns:xlink="http://www.w3.org/1999/xlink">
    <title>paint_15</title>
    <g id="Contents_ì½˜í…ì¸ " stroke="none" stroke-width="1" fill="none" fill-rule="evenodd">
        <g id="paint_15">
            <rect id="area" x="0" y="0" width="80" height="80"></rect>
            <g id="Group-21" transform="translate(17.000000, 10.000000)">
                <path d="M18.4348681,0 L20.4997193,2.22157598 L23.5934868,22.6511257 L19.0873105,24.4488743 L19.393,27.227 L20.675744,26.5885553 L26.3820887,24.9101313 L44.7498596,30.6427767 L46,32.5151032 L45.999,35.445 L40.7576095,39.8603521 L38,42 L42.2636768,39.8603521 L45.999,36.751 L46,38.8136961 L44.7498596,47.5471857 L35.0468838,59.1140713 L31.0522179,60 L10.6108928,50.4755478 C8.62016587,44.2570809 7.77112821,40.369797 8.0637798,38.8136961 C8.30342919,37.5394209 8.91618021,36.2206733 9.90203286,34.8574533 L9,38.5531494 C10.2182028,40.2274648 11.7090415,41.3568915 13.4725162,41.9414296 C15.2359909,42.5259676 20.4118188,43.5454911 29,45 L13.4725162,40.9847981 L11.3819327,39.5 L10.2132272,34.4416623 C10.3404248,34.2772253 10.47298,34.1121496 10.6108928,33.9464353 L12.209,31.211 L10.0993824,29.3890244 L5.150758,31.9584428 L0,7.3435272 L2.09629422,3.27073171 L18.4348681,0 Z M24.4367572,29.6496248 C22.3147108,30.6866792 19.4612577,31.4406191 19.4612577,33.9613508 C19.4612577,36.4820826 30.9135317,37.7749531 32.5685008,37.1285178 C34.22347,36.4820826 36.6308254,36.6996248 38.5005615,33.9613508 C39.7470522,32.1358349 36.9979412,30.5670732 30.2532285,29.2550657 C27.7902785,28.8267355 25.8514548,28.9582552 24.4367572,29.6496248 Z" id="Combined-Shape-Copy-9" fill="#EAA496"></path>
                <polygon id="Path-6" fill="#CD674B" points="9.93973723 35 9.79551237 35.5371576 9 38.5 12.5488425 42 20.1196249 43.2691235 29.8488749 45 38 42 43.1778435 38.9801736 46 36.5228356 45.3528154 45 44.7498596 47.5471857 35.4326902 58.6543053 31.0522179 60 11.098622 50.8234017 8.0075178 42 7.45248907 38.5"></polygon>
                <g id="Group-28" transform="translate(9.625077, 25.714955)" fill="#CD674B">
                    <polygon id="Path-101" points="10.8361803 -9.09494702e-13 8 2.11754254 8.93143638 2.86489388 12.0506665 0.87360029"></polygon>
                    <polygon id="Path-101-Copy" points="2.8361803 5 -4.48284502e-17 7.11754254 0.931436376 7.86489388 4.05066654 5.87360029"></polygon>
                </g>
                <polygon id="Path-102" fill="#CD674B" points="8.0075178 31 2.09629422 11.5195111 9 2.76046559 20.4997193 2.22157598 18.4348681 9.09460633e-13 2.09629422 3.27073171 8.83412251e-17 7.46919217 5.50568813 32.147402 6.53053565 31"></polygon>
            </g>
        </g>
    </g>
</svg>