<?xml version="1.0" encoding="UTF-8"?>
<svg width="28px" height="28px" viewBox="0 0 28 28" version="1.1" xmlns="http://www.w3.org/2000/svg" xmlns:xlink="http://www.w3.org/1999/xlink">
    <title>ico_editor</title>
    <g id="*Final_디자인" stroke="none" stroke-width="1" fill="none" fill-rule="evenodd">
        <g id="Editor_main" transform="translate(-82.000000, -766.000000)">
            <g id="tabbar_editor" transform="translate(0.000000, 761.000000)">
                <g id="ico_edit" transform="translate(72.000000, 5.000000)">
                    <g id="ico_editor" transform="translate(10.000000, 0.000000)">
                        <rect id="Rectangle" x="0" y="0" width="28" height="28"></rect>
                        <g id="Group-17" transform="translate(2.402546, 4.038947)" fill="#4F4F4F">
                            <polygon id="Path-202" points="5.79438585 4.37300884e-18 2.32465708 0.574004512 4.99486915e-16 5.08452952 1.21385432 8.32416693 4.59130176 8.32416693 5.79438585 4.16208346 3.6376465 3.34317852 2.32465708 3.74559362 2.89719292 2.35868123 5.79438585 1.26011737"></polygon>
                            <polygon id="Path-206" points="23.3332222 5.99975462 19.3011159 5.99975462 14.9488399 5.99975462 14.9488399 7.0434882 19.3011159 7.3768759 23.3332222 7.3768759"></polygon>
                            <polygon id="Path-205" points="15.2690096 1.8189894e-12 15.2690096 1.39474529 19.5548283 1.7335181 23.3332222 1.39474529 23.3332222 -6.20416533e-28"></polygon>
                            <polygon id="Path-207" points="23.3332222 11.9427207 16.7379226 11.9427207 5.79438585 11.9427207 -1.16392334e-16 11.9427207 0 13.5822441 7.86887977 13.5822441 16.7379226 13.5822441 23.3332222 12.7624824"></polygon>
                            <polygon id="Path-208" points="23.3332222 17.9875145 15.9729912 17.6502104 7.47992745 17.8188625 5.52811527e-16 17.9875145 0 19.1565745 8.26811275 19.1565745 16.508076 19.1565745 23.3332222 18.8087449"></polygon>
                            <polygon id="Path-204" points="12.4065751 0 9.91032865 0 7.84538107 2.29038815 7.13870686 5.52121355 8.83599782 8.32416693 11.5974545 8.32416693 13.2513042 5.52121355 11.5974545 3.28785868 8.83599782 4.16208346 9.57792006 2.29038815 12.4065751 0.909350432"></polygon>
                        </g>
                    </g>
                </g>
            </g>
        </g>
    </g>
</svg>