<?xml version="1.0" encoding="UTF-8"?>
<svg width="309px" height="242px" viewBox="0 0 309 242" version="1.1" xmlns="http://www.w3.org/2000/svg" xmlns:xlink="http://www.w3.org/1999/xlink">
    <title>card_con</title>
    <g id="Prototype_디자인" stroke="none" stroke-width="1" fill="none" fill-rule="evenodd">
        <g id="1_tools_card-copy-3" transform="translate(-986.106899, -118.000000)">
            <g id="card_con" transform="translate(987.000000, 118.000000)">
                <g id="con_leaf" transform="translate(112.000000, 0.000000)" fill="#405738">
                    <path d="M45.5487041,0 L57.2289291,12.3722281 L57.2298808,28.9009126 C65.7879205,19.2668241 70.9701953,15.0066581 70.9701953,15.0066581 L77.9154454,15.0066581 L77.9154454,15.0066581 C72.3107813,21.0370624 67.1665672,26.6779466 62.4828032,31.9293108 L69.698122,28.8635164 C75.1763376,26.4638332 77.9154454,25.2639916 77.9154454,25.2639916 C77.9154454,25.2639916 81.6102969,27.2880148 89,31.3360612 L89,31.3360612 L77.9154454,39.0740496 L69.698122,40.6789863 L57.5198802,37.5447031 C51.6810336,44.2158845 46.6731614,50.1840988 42.4962635,55.4493462 L51.5248182,49.3162619 L62.8320331,44.5747096 L75.5859544,50.5359029 L68.4112771,55.9442978 L55.8315333,58.9522175 L40.3233822,58.9522175 L41.2380755,57.0462316 C37.3615204,62.0012136 34.2628914,66.2981051 31.9421885,69.936906 C30.2634204,72.56917 28.6815739,75.1834901 27.1926311,77.762473 C28.2796373,76.8321215 29.2338724,76.0149827 30.0566419,75.3104215 L30.497625,74.9327951 C31.923025,73.7121842 32.9029875,72.8730143 33.4375125,72.4152852 L33.6479817,72.2350544 C33.8283839,72.0805708 33.918585,72.0033291 33.918585,72.0033291 C33.918585,72.0033291 36.6945538,70.8467283 42.2464916,68.5335269 L42.2464916,68.5335269 L58.8720821,72.0033291 C50.4172432,77.8186398 45.1684511,81.4110004 43.1257059,82.7804106 L42.9155791,82.9209825 C42.5865649,83.1405718 42.3635357,83.2866751 42.2464916,83.3592925 C41.5867711,83.7686009 37.3333226,83.4892317 29.486146,82.5211848 L28.5824341,82.4086525 C27.357015,82.2546869 26.0497167,82.0850304 24.6605393,81.8996832 L24.8507967,81.9257266 C22.6431229,85.9547362 20.6645272,89.870694 18.8988886,93.6038128 L19.7680632,93.3302534 L31.7393792,87.6019007 L45.5184816,90.4660771 L40.3233822,97.156283 L26.864798,101.798838 L15.2218959,101.799102 C8.86209349,116.770434 6.36226882,127.200149 6.36226882,127.200149 C6.36226882,127.200149 5.3269142,127.800099 3.25620495,129 L0,127.200149 C6.09389347,111.350315 11.4254768,98.5832911 15.9947501,88.8990785 L2.20239192,76.6219641 L4.63689884,57.9266103 L17.0949571,69.5686378 L19.3501001,82.0754202 C21.0202073,78.8355611 22.568589,76.0879642 23.9952453,73.8326294 C25.5488151,71.3766629 27.0809737,69.0070596 28.588933,66.7221007 L17.7455375,61.7217529 L15.4024936,36.1140444 L28.8062,49.4881204 L32.1175308,61.4623023 C35.1688062,56.9887171 38.1060094,52.8749648 40.9041024,49.105609 L30.2195024,39.3777719 L28.8062,17.2040655 L38.9577227,25.2125132 L44.3771822,35.5343189 L45.2888375,43.3271413 C48.333144,39.4041486 51.1748032,35.927609 53.7754836,32.8738904 L46.7838525,26.311774 L40.3233822,11.0036959 L45.5487041,0 Z" id="Combined-Shape"></path>
                </g>
                <g id="con_ground" transform="translate(5.000000, 15.000000)" fill="#8FA984">
                    <path d="M52.846166,0 C52.846166,0 52.9296121,0.040174116 53.0898287,0.117308419 L53.3868969,0.260328272 C55.7989075,1.4215611 65.9259303,6.29709182 76.5789768,11.4258701 L78.1408798,12.1778291 C89.8707986,17.8250544 101.81194,23.5739704 104.459269,24.8484943 L104.756337,24.9915141 C104.916554,25.0686484 105,25.1088225 105,25.1088225 C105,25.1088225 88.1438228,44.0725484 54.4314683,82 L54.4314683,82 L0,52.7584298 L0.674367287,49.6606659 L3.74034315,48.4705672 L49.4522192,75.1751095 L52.1469245,73.077324 L52.1469245,69.2592251 L2.34738777,39.7014913 C34.6666058,14.2925369 51.4725992,1.07988056 52.7653679,0.0635223861 L52.8259665,0.0158805965 C52.8394328,0.00529353218 52.846166,0 52.846166,0 Z M0.990566038,40.5060241 L4.09410645,41.0558209 L12.9552899,49.1375069 L51.509434,71.0640258 L50.1367954,73.1084337 L0.990566038,46.7590621 L0.990566038,40.5060241 Z" id="Combined-Shape"></path>
                </g>
                <g id="con_redline" transform="translate(71.000000, 221.000000)" fill="#CD674B">
                    <polygon id="Path-20" points="7.65588912 0 27.3817695 7.85247911 51.7552903 0 79.719749 7.85247911 102.575093 0 129.477248 11.1680223 151.735052 0 178 7.85247911 173.844871 21 151.735052 11.1680223 129.477248 21 102.575093 11.1680223 75.3935127 21 51.7552903 11.1680223 27.3817695 21 -3.48398327e-16 10.5"></polygon>
                </g>
                <g id="con_orange" transform="translate(0.000000, 105.000000)">
                    <path d="M22.7785742,44.4375 L15.5970285,51.5291891 L7.70937052,65.767652 C5.23645684,72.3315958 4,76.5890969 4,78.5401555 C4,80.491214 7.86567618,76.2337129 15.5970285,65.767652 L22.7785742,58.2548327 L32.4415483,69.916761 L46,76.1515375 L38.9735436,61.71875 L38.9735436,51.5291891 L22.7785742,44.4375 Z" id="Path-280" fill="#405738"></path>
                    <path d="M23.8780417,0 C22.3719969,0 17.9134558,1.40133738 10.5024186,4.20401215 L3.92776095,13.3406437 L0,20.6252453 L0,26.1011954 L1.82969487,36.2744931 L7.30381878,42.3570031 L15.9309124,46.4125 L23.8780417,46.4125 L36.4816921,42.3570031 L43.9874805,33.2909532 L46,23.20625 L43.9874805,13.3406437 L33.363132,3.23057527 C28.5457833,1.07685842 25.3840865,0 23.8780417,0 Z" id="Path-281" fill="#E79219"></path>
                </g>
                <g id="con_chair" transform="translate(148.000000, 54.000000)" fill="#EAA496">
                    <path d="M63.9950592,0 L157.008734,3.14819038 L149.769665,48.3795938 L148.804,54.408 L156.021089,54.4086022 L156.021089,57.5613034 L147.625,61.779 L145.003,78.162 L150.97019,96.6156156 L153.184309,113.268817 L160,143.44086 L149.601395,148.387097 L145.747,123.032 L132.671375,132.55914 C130.298334,132.425095 127.982655,132.29263 125.724339,132.161744 L122.474987,184 L115.385237,179.277586 L118.492116,131.736267 C80.7681903,129.482058 60.9978973,127.722045 59.1812368,126.456231 C57.9948751,125.629597 54.0663359,118.544087 47.3956195,105.199701 L20.181,100.04 L9.96884779,152.344086 L1.49761491,152.344086 L14.563,98.975 L0,96.2150904 L17.406,87.361 L23.0601374,64.2686091 L10.5859015,65.2359934 L13.7303201,58.3785969 L52.434,57.195 L53.1470174,53.2515761 L54.4613525,45.9740117 L63.9950592,0 Z M140.784,90.386 L127.751,99.841 L125.962953,128.337959 C128.262491,128.36878 130.626865,128.396804 133.056077,128.422032 L134.442041,128.436053 L145.177,119.287 L140.784,90.386 Z M120.221,105.304 L105.251032,116.16593 L58.354,107.276 L64.7956204,124.060259 C64.7956204,126.224781 82.7713368,127.614039 118.722769,128.228033 L120.221,105.304 Z M30.0518358,69.4386377 L25.8921444,70.7933335 L23.236,84.396 L34.4673467,78.6848255 C33.0551068,75.73879 31.5832698,72.6567274 30.0518358,69.4386377 Z M61.2071389,71.2258065 L99.246613,79.1397849 L134.292892,82.3508457 L139.728415,80.2118548 L114.520962,76.7883261 C116.632069,73.1681283 115.30385,72.5166228 110.536304,74.8338093 C105.768758,77.1509959 89.3257028,75.9483283 61.2071389,71.2258065 Z M51.484,62.457 L42.301,65.448 L45.271,73.187 L49.9789593,70.7933335 L51.484,62.457 Z" id="Combined-Shape"></path>
                </g>
                <path d="M90.8351191,142 L139,151.617333 L138.934,151.884 L139,151.836066 L139,183.903756 C131.216535,191.02092 126.045133,195.849942 123.485795,198.390823 L123.103396,198.772999 C122.101473,199.781782 121.602024,200.350401 121.605051,200.478858 C121.61534,200.915613 120.250879,201.42266 117.511667,202 C114.173159,201.381421 109.302957,199.805451 102.901061,197.272089 L102.901061,197.272089 L74.4501183,189.543368 C68.5072882,187.916318 64.7765921,187.102793 63.2580299,187.102793 C61.7394678,187.102793 60.9868491,186.389319 61.0001739,184.96237 L61.0001739,184.96237 L63.2580299,181.559483 L63.2580299,156.346771 L61.0001739,155.302919 L61.0001739,152.742143 C62.8912448,153.110918 64.7369134,153.470286 66.5371798,153.820245 L61.0001739,152.506738 L90.8351191,142 Z M90.8351191,147.987949 L67.2531375,153.959391 C100.273332,160.375424 117.812114,163.583441 119.869484,163.583441 C121.631662,163.583441 126.124705,161.033261 133.348613,155.932901 L90.8351191,147.987949 Z" id="con_box" fill="#D2C2B3"></path>
                <g id="con_apple" transform="translate(221.000000, 7.000000)">
                    <g id="Group" transform="translate(0.000000, 8.029122)" fill="#CD674B">
                        <path d="M11.2613228,0 C10.5510444,0 8.44831462,0.693562066 4.95313343,2.0806862 L1.85240417,6.6026672 L0,12.9182303 L0.86291769,17.9532871 L3.44461501,20.9636958 L7.51331073,22.9708775 L17.2054357,20.9636958 L20.7453033,16.4766476 L21.6944444,11.4854388 L20.7453033,6.6026672 L18.3959854,3.27474414 C14.3498221,1.09158138 11.9716012,0 11.2613228,0 Z" id="Path-281"></path>
                        <path d="M35.9141006,0 C35.2038222,0 33.2463479,0.554643902 30.0416778,1.66393171 L24.6527778,10.2080255 L24.6527778,12.9182303 L25.5156955,17.9532871 L32.1660885,22.9708775 L41.8582135,20.9636958 L45.3980811,16.4766476 L46.3472222,11.4854388 L45.3980811,6.6026672 L41.8582135,1.66393171 C38.6057499,0.554643902 36.624379,0 35.9141006,0 Z" id="Path-281-Copy"></path>
                        <path d="M60.5668784,0 C59.8566,0 57.7538702,0.693562066 54.258689,2.0806862 L51.1579597,6.6026672 L49.3055556,12.9182303 L50.1684732,17.9532871 L52.7501706,20.9636958 L56.8188663,22.9708775 L60.5668784,22.9708775 L66.5109913,20.9636958 L70.0508588,16.4766476 L71,11.4854388 L70.0508588,6.6026672 L65.0402211,1.59890436 C62.768271,0.532968121 61.2771568,0 60.5668784,0 Z" id="Path-281-Copy-2" transform="translate(60.152778, 11.485439) scale(-1, -1) translate(-60.152778, -11.485439) "></path>
                    </g>
                    <polygon id="Path-43" fill="#4D4D4D" points="10.8472222 13.1757772 8.88841442 4.04488889 6.42313665 4.70609064e-17 4.25360359 0 7.55041291 4.04488889 8.88841442 13.1757772"></polygon>
                    <path d="M35.5,14.04226 L36.9152935,6.58788862 L35.5,0 L33.6745392,0 L33.6745392,6.58788862 C33.1851084,11.5574695 33.1851084,14.04226 33.6745392,14.04226 C34.1639701,14.04226 34.772457,14.04226 35.5,14.04226 Z" id="Path-44" fill="#5B5B5B"></path>
                    <polygon id="Path-45" fill="#5B5B5B" points="61.2567818 13.1757772 61.2567818 6.58788862 64.345186 1.20900726 61.9447453 -5.34387793e-17 60.1527778 5.0541444 59.7386772 8.02912249 59.7386772 14.04226"></polygon>
                </g>
                <g id="con_drop" transform="translate(6.000000, 184.000000)" fill="#3379A4">
                    <polygon id="Path-280" points="19.5720374 36 16.300794 43.73704 15 47.5116584 16.300794 50.6635408 19.5720374 54 24 50.6635408 24 45"></polygon>
                    <polygon id="Path-280-Copy-2" transform="translate(4.000000, 45.000000) scale(-1, 1) translate(-4.000000, -45.000000) " points="3.39904494 36 -5.47745725e-17 43.73704 0 50.6635408 1.97013393 53.2493264 5.85620113 54 8 50.6635408 8 45"></polygon>
                    <polygon id="Path-280-Copy-3" transform="translate(29.000000, 22.000000) scale(-1, 1) translate(-29.000000, -22.000000) " points="28.3990449 13 25 20.73704 25 27.6635408 28.3990449 31 31.6760597 31 33 25.839809 33 22"></polygon>
                    <polygon id="Path-280-Copy" points="37.3990449 36 34 46.2515314 34.5156913 50.6635408 36.3688642 54 39.6080007 54 42 50.6635408 42 43.73704"></polygon>
                    <polygon id="Path-280-Copy-4" points="12.3990449 0 9 10.2515314 9.51569125 14.6635408 11.4501354 18 14.6080007 18 17 14.6635408 17 7.73704004"></polygon>
                </g>
            </g>
        </g>
    </g>
</svg>