<?xml version="1.0" encoding="UTF-8"?>
<svg width="80px" height="80px" viewBox="0 0 80 80" version="1.1" xmlns="http://www.w3.org/2000/svg" xmlns:xlink="http://www.w3.org/1999/xlink">
    <title>paint_24</title>
    <g id="Contents_ì½˜í…ì¸ " stroke="none" stroke-width="1" fill="none" fill-rule="evenodd">
        <g id="paint_24">
            <rect id="area" x="0" y="0" width="80" height="80"></rect>
            <g id="Group-2" transform="translate(10.000000, 12.000000)" fill="#8FA984">
                <path d="M18.7432487,0 L18.914019,0.0604381079 C24.7724978,7.41162805 27.9236634,11.2850252 28.3675159,11.6806297 C28.3818458,11.6934018 28.3940983,11.7035524 28.4042736,11.7110815 L31.177,16.848 L28.35804,19.3587697 L20.4369652,20.1340667 L21.1019916,56 L18.8482105,55.9935633 L19.1484464,20.2602254 L0,22.1341011 L18.7432487,0 Z M20.315,0.555 L25.6020191,2.42258874 L43.1198233,6.22023758 L60,20.9864428 L44.152699,22.4496589 L43.4063755,51.6317535 L41.7245718,51.626926 L42.6178741,22.5914266 L36.9183836,23.1176244 L31.757,16.552 L31.8065716,16.5182742 L28.0719405,11.0956153 L28.1530241,11.246518 C27.5308958,10.344506 25.9030436,8.17326917 23.2694676,4.73280742 L23.2694676,4.73280742 L20.315,0.555 Z" id="Combined-Shape"></path>
            </g>
        </g>
    </g>
</svg>