<?xml version="1.0" encoding="UTF-8"?>
<svg width="28px" height="28px" viewBox="0 0 28 28" version="1.1" xmlns="http://www.w3.org/2000/svg" xmlns:xlink="http://www.w3.org/1999/xlink">
    <title>ico_dic</title>
    <g id="*Final_디자인" stroke="none" stroke-width="1" fill="none" fill-rule="evenodd">
        <g id="Dictionary_main" transform="translate(-276.000000, -766.000000)">
            <g id="tabbar_main" transform="translate(0.000000, 761.000000)">
                <g id="ico_dic" transform="translate(266.000000, 5.000000)">
                    <g transform="translate(10.000000, 0.000000)">
                        <rect id="Rectangle" x="0" y="0" width="28" height="28"></rect>
                        <g id="Group-43" transform="translate(0.000000, 3.000000)" fill="#4F4F4F">
                            <path d="M13.5391711,2.67823496 C13.5391711,2.67823496 11.6605497,1.78548997 7.90330702,0 L2.45002223,3.15630021 L2.64005441,17.7930066 L8.57621315,16.1121996 L13.3330865,18.1866333 C13.4704762,7.84770107 13.5391711,2.67823496 13.5391711,2.67823496 Z" id="Path-141"></path>
                            <path d="M25.3330865,2.78954308 C25.3330865,2.78954308 24.2588044,2.26725896 22.1388135,1.42636066 C21.5533942,1.194153 20.498161,0.71869945 18.973114,0 L14.3330865,3.29799943 L14.3330865,18.1866333 L17.8729144,15.6001745 L25.3330865,18.1866333 C25.3330865,7.92190648 25.3330865,2.78954308 25.3330865,2.78954308 Z" id="Path-141" transform="translate(19.833087, 9.093317) scale(-1, 1) translate(-19.833087, -9.093317) "></path>
                            <polygon id="Path-142" points="1.60578579 5.1866333 7.95861314e-14 5.1866333 0.33308652 21.1866333 13.2109968 19.9389412 25.9966013 21.5378096 27.3330865 21.1866333 27.8916998 5.1866333 26.5877672 5.1866333 26.5877672 19.9389412 21.684726 17.8348766 15.5636486 19.1876409 12.660088 19.5741275 8.80562734 17.8348766 1.60578579 19.9389412"></polygon>
                        </g>
                    </g>
                </g>
            </g>
        </g>
    </g>
</svg>