<?xml version="1.0" encoding="UTF-8"?>
<svg width="350px" height="301px" viewBox="0 0 350 301" version="1.1" xmlns="http://www.w3.org/2000/svg" xmlns:xlink="http://www.w3.org/1999/xlink">
    <title>card_painting</title>
    <defs>
        <polygon id="path-1" points="0 0 111.701765 0 111.701765 23.6526735 0 23.6526735"></polygon>
    </defs>
    <g id="Prototype_디자인" stroke="none" stroke-width="1" fill="none" fill-rule="evenodd">
        <g id="Editor_detail_2" transform="translate(-20.000000, -109.000000)">
            <g id="card_painting" transform="translate(0.000000, -45.000000)">
                <g transform="translate(20.000000, 154.000000)">
                    <rect id="/area" opacity="0" x="0" y="0" width="350" height="301"></rect>
                    <g id="con_flower" transform="translate(0.000000, 12.400749)">
                        <g id="Group-4" fill="#EAA496">
                            <polygon id="Path-20-Copy" points="4.6132351 47.8335688 16.4995259 52.5286004 31.186361 47.8335688 48.0369999 52.5286004 61.8090224 47.8335688 78.0195448 54.5109782 91.4315053 47.8335688 107.258065 52.5286004 104.754294 60.3895606 91.4315053 54.5109782 78.0195448 60.3895606 61.8090224 54.5109782 45.430125 60.3895606 31.186361 54.5109782 16.4995259 60.3895606 -2.09935563e-16 54.1115647"></polygon>
                            <polygon id="Path-20-Copy" transform="translate(53.629168, 54.112148) rotate(100.000000) translate(-53.629168, -54.112148) " points="4.42303102 47.8933885 16.3531386 52.5615962 31.1014157 47.8748285 48.0155357 52.5395689 61.8453765 47.8534402 78.1154655 54.493185 91.5851969 47.8327504 107.471181 52.4982061 104.952025 60.3299036 91.5805521 54.4838174 78.1113763 60.3485765 61.8407316 54.5045072 45.3928666 60.3713385 31.0967708 54.5258955 16.3476705 60.391545 -0.212844587 54.1498399"></polygon>
                            <polygon id="Path-20-Copy" transform="translate(53.626433, 54.111677) rotate(50.000000) translate(-53.626433, -54.111677) " points="4.48216846 47.7480272 16.4063514 52.4557136 31.1189832 47.8014678 48.0194125 52.5191379 61.8150391 47.8630524 78.0777883 54.5570631 91.5085193 47.9226255 107.382414 52.6382361 104.888388 60.475326 91.5218937 54.5840356 78.0895627 60.4215603 61.8284135 54.5244625 45.4220345 60.3560205 31.1323576 54.4628779 16.4220963 60.2978388 -0.129548988 54.0017033"></polygon>
                            <polygon id="Path-20-Copy" transform="translate(53.629812, 54.110027) rotate(-40.000000) translate(-53.629812, -54.110027) " points="4.54228868 47.9418351 16.4392339 52.6050714 31.1602572 47.8883938 48.029928 52.5416463 61.8345947 47.8268085 78.0590983 54.4603944 91.507066 47.7672346 107.350929 52.4225467 104.827189 60.2753306 91.4936917 54.4334216 78.047324 60.329097 61.8212204 54.4929954 45.402909 60.3946376 31.1468828 54.5545807 16.4234891 60.45282 -0.0913056677 54.2185575"></polygon>
                        </g>
                        <path d="M52.2453673,47.1468867 C51.8590869,47.1468867 50.7155305,47.502783 48.8146982,48.2145756 L47.1283861,50.534997 L46.1209677,53.775782 L46.5902601,56.3594845 L47.9942999,57.9042537 L50.2070345,58.9342243 L55.4780357,57.9042537 L57.4031704,55.6017578 L57.9193548,53.0405555 L57.4031704,50.534997 L56.1255086,48.8272977 C53.9250282,47.7070237 52.6316477,47.1468867 52.2453673,47.1468867 Z" id="Path-281" fill="#CD674B"></path>
                    </g>
                    <g id="con_table" transform="translate(0.000000, 121.752809)">
                        <polygon id="Fill-1" fill="#D7DED3" points="0 55.2771028 124.911694 80.8046508 143.094877 60.6920939 29.9348342 35.5540464"></polygon>
                        <polygon id="Fill-2" fill="#D7DED3" points="32.2770398 33.3992557 144.487115 57.1019533 162.461101 38.92997 52.2719889 21.5479069"></polygon>
                        <path d="M53.1197967,19.7585703 C53.9050419,18.9696757 68.8430656,10.2499132 68.8430656,10.2499132 L172.812065,25.9706389 L162.394267,37.0170688 L53.1197967,19.7585703 Z" id="Fill-3" fill="#D7DED3"></path>
                        <g id="Group-7" transform="translate(71.201461, 0.000000)">
                            <mask id="mask-2" fill="white">
                                <use xlink:href="#path-1"></use>
                            </mask>
                            <g id="Clip-6"></g>
                            <polygon id="Fill-5" fill="#D7DED3" mask="url(#mask-2)" points="0 7.88430918 10.8186223 1.82930103 111.701765 14.6299297 101.400488 23.6526735"></polygon>
                        </g>
                        <polygon id="Fill-8" fill="#D7DED3" points="100.568429 75.068085 58.0841296 88.9251902 75.8154731 98.4529028 112.544685 76.8567543"></polygon>
                        <polygon id="Fill-10" fill="#D7DED3" points="28.653329 59.8868184 14.2478789 56.1303589 51.7870329 99.4541383 71.3820673 110.521529 106.514231 158.281935 122.818084 149.757953 73.9144831 99.231825 54.8045277 92.1698845"></polygon>
                        <polygon id="Fill-13" fill="#D7DED3" points="51.786843 102.276056 7.5313093 128.488699 14.2483222 132.288351 62.5168388 109.886158"></polygon>
                        <polygon id="Fill-15" fill="#D7DED3" points="154.805062 41.9818328 149.848519 51.4879492 176.613348 102.264305 181.569892 95.8502493"></polygon>
                    </g>
                    <g id="con_samyang" transform="translate(121.935484, 22.546816)" fill="#E79219">
                        <path d="M12.9570722,44.45745 L15.3586856,34.2107229 L20.1255329,28.1521591 L27.3344997,33.2228392 L35.3335991,36.0342569 L38.6825452,29.4801042 L42.4782781,26.4820728 C50.0451536,27.4510868 53.8285914,28.4504306 53.8285914,29.4801042 C53.8285914,30.5097777 55.6893706,32.8808172 59.4109291,36.5932225 L63.5012223,36.5932225 L68.2209203,29.4801042 L72.0381026,25.3303153 L76.3028899,28.1521591 L76.3028899,32.8814178 L72.4127623,29.4801042 L68.2209203,36.0342569 L64.4014761,39.7281913 L59.4109291,41.0870668 L51.8453967,32.8814178 L46.0291717,32.8814178 L38.6825452,39.5891187 L28.1426302,39.5891187 L23.8843294,34.2107229 L20.1255329,34.2107229 L17.8331702,44.2702065 L12.9570722,44.45745 Z" id="Path-29-Copy-4" transform="translate(44.629981, 34.893883) rotate(90.000000) translate(-44.629981, -34.893883) "></path>
                        <path d="M-20.8959226,45.5255883 L-22.1148612,37.9623726 L-15.66641,27.8165955 L-10.0387626,27.8165955 L-3.48761569,37.9623726 L4.77055035,34.2729991 L8.55757782,27.8165955 C16.1070991,28.7712493 19.8818597,29.7557834 19.8818597,30.7701979 C19.8818597,31.7846123 20.8954544,33.218653 22.9226436,35.0723202 L26.9915137,37.9623726 L33.1896735,34.4574678 L34.2834665,27.8165955 L40.2749048,25.335835 L42.3046145,30.7701979 L38.4234088,30.7701979 L38.0496083,37.7779039 L33.1896735,42.2051521 L25.4513946,42.2051521 L14.6839109,34.4574678 L10.7365931,31.0149901 L4.77055035,40.7294027 L-6.55146901,42.2051521 L-13.7439023,33.6111153 L-15.66641,37.2448595 L-16.0310076,45.3411196 L-20.8959226,45.5255883 Z" id="Path-29-Copy-3" transform="translate(10.094877, 35.430712) rotate(90.000000) translate(-10.094877, -35.430712) "></path>
                        <path d="M-0.868008917,42.3101342 L7.21787935,29.9866234 L12.8740784,28.7603719 L17.3626597,32.5446752 L24.1775496,36.1418144 L31.231246,28.2146421 C36.7427769,27.1735325 39.4985424,27.1735325 39.4985424,28.2146421 C39.4985424,29.2557516 40.7886508,31.8981424 43.3688677,36.1418144 L54.9416025,36.9812455 L56.6879168,25.7290431 L62.6166557,23.1829994 L64.6251247,28.7603719 L60.7845352,28.7603719 L60.4146465,35.9524913 L56.6460734,40.496246 L47.9482713,40.496246 L40.7436816,40.496246 L37.2934678,32.5446752 L32.7524572,33.5435307 L27.4838492,38.9816611 L22.8651133,40.496246 L16.2803132,40.496246 L11.5095409,33.5435307 L7.26075878,35.4054194 L4.4570028,42.3101342 L-0.868008917,42.3101342 Z" id="Path-29-Copy-5" transform="translate(31.878558, 32.746567) rotate(90.000000) translate(-31.878558, -32.746567) "></path>
                    </g>
                    <g id="con_spoon" transform="translate(275.483871, 58.621723) rotate(270.000000) translate(-275.483871, -58.621723) translate(230.322581, -15.782772)" fill="#D2C2B3">
                        <path d="M66.1104338,53.8393603 L69.7318193,57.4571045 L66.1104338,105.480873 L64.3549374,138.478644 L67.0433783,147.730663 L75.5033231,147.730663 L78.3951022,138.478644 L75.5033231,105.480873 L75.5033231,57.4571045 L78.3951022,53.8393603 L87.5208921,46.0690805 C89.3886845,41.3351857 90.3225806,36.918415 90.3225806,32.8187685 C90.3225806,26.6692988 85.8288397,8.36881063 81.5837994,5.98374183 C78.7537725,4.39369596 75.4426283,2.75855735 71.6503669,1.07832601 C65.3622172,3.70676918 61.3857566,7.72065517 59.7209851,13.119984 C57.2238279,21.2189772 55.0870329,38.2988007 59.7209851,46.0690805 C62.8102866,51.2492671 64.9401029,53.8393603 66.1104338,53.8393603 Z" id="Path-190"></path>
                        <path d="M49.4333302,6.71617985 C49.472044,4.51062742 49.472044,2.2719008 49.4333302,-2.07833063e-14 L46.1830483,-2.07833063e-14 L36.1667803,24.9177165 L34.4086022,72.4950309 C36.5902387,83.9030303 37.6810569,89.60703 37.6810569,89.60703 C37.6810569,89.60703 36.5902387,105.941872 34.4086022,138.611556 L36.1667803,147.730663 L43.2718809,147.730663 L48.1277395,138.611556 L48.1277395,74.3803797 C48.9594195,31.4764656 49.3946164,8.92173228 49.4333302,6.71617985 Z" id="Path-191"></path>
                        <path d="M16.1813778,58.5339651 L22.6686476,51.3283648 L25.8064516,44.6243099 L20.9939147,2.1084227 C19.4805875,1.42169157 18.7239239,1.07832601 18.7239239,1.07832601 C18.7239239,1.07832601 19.124453,13.1433755 19.9255113,37.2734745 L17.248153,37.2734745 L16.1813778,1.07832601 L14.1318408,1.07832601 L14.1318408,37.2734745 L10.8116821,37.2734745 L10.8116821,1.07832601 L9.19914521,1.07832601 L7.26162613,37.2734745 L5.16650046,36.3826988 L6.17466165,1.07832601 L4.17657474,2.1084227 L0,42.820812 L1.19181846,48.2190414 L8.28932533,58.5339651 L9.19914521,84.585925 L5.16650046,139.110431 L8.28932533,148.808989 L16.1813778,148.808989 L18.7239239,139.110431 L16.1813778,80.5696888 L16.1813778,58.5339651 Z" id="Path-192"></path>
                    </g>
                    <g id="con_light" transform="translate(244.949594, 147.681648)">
                        <line x1="21.5020186" y1="107.661049" x2="72.3084702" y2="107.661049" id="Path-108-Copy" fill="#405738"></line>
                        <polygon id="Path-109-Copy" fill="#D7DED3" points="29.1587236 54.1123596 25.7355481 63.7501781 24.8891154 81.8650743 31.0471331 102.588015 67.8829058 102.588015 74.5665347 81.0589992 74.5665347 67.2733898 68.9447605 54.1123596"></polygon>
                        <polygon id="Path-110-Copy" fill="#88AA80" points="25.2091438 103.715356 13.5224696 106.372182 13.5224696 113.337439 6.82459923 121.35981 6.82459923 130.771536 88.1149218 130.771536 88.1149218 121.35981 83.4668868 113.343885 79.9249804 105.327959"></polygon>
                        <path d="M78.2903858,46.8354074 C72.9855601,49.1077574 70.3331473,52.6789621 70.3331473,57.5490214 C70.3331473,62.4190806 71.377616,75.6219508 73.4665535,97.1576319 L84.727825,113.10798 L78.2903858,118.370787 L70.3331473,113.10798 L62.1471799,78.2671825 L62.1471799,49.4184281 L78.2903858,38.329588 L78.2903858,46.8354074 Z" id="Path-112" fill="#88AA80" transform="translate(73.437502, 78.350187) rotate(180.000000) translate(-73.437502, -78.350187) "></path>
                        <path d="M23.7166377,45.0686501 C18.1254894,47.3184473 15.3301895,50.85489 15.3307379,55.677978 C15.3312863,60.501066 16.4336663,73.5767209 18.6378778,94.9049428 L30.5093044,110.702802 L23.724693,115.914077 L15.3369942,110.701075 L6.70487931,76.1953327 L6.70163076,47.6248218 L23.7156799,36.6448686 L23.7166377,45.0686501 Z" id="Path-112-Copy" fill="#88AA80" transform="translate(18.605468, 76.279473) rotate(10.000000) translate(-18.605468, -76.279473) "></path>
                        <polygon id="Path-115-Copy" fill="#D7DED3" points="72.1604673 45.9290581 79.3945343 12.3568734 75.7775008 3.93534975 23.7265778 3.93534975 19.359106 15.9052419 23.7265778 42.8773761 19.359106 48.4756554 14.727825 15.9052419 19.359106 -5.39111209e-17 79.3945343 0 82.4697605 9.04100573 75.7775008 45.9290581"></polygon>
                        <polygon id="Path-107" fill="#88AA80" points="90.3729863 50.7303371 6.82459923 49.0968929 26.240855 36.5967151 28.3548565 24.8014981 69.9202493 24.8014981 73.9575117 36.5967151"></polygon>
                        <polygon id="Path-48" fill="#EAA496" points="49.8498602 81.4497788 54.3251375 81.4497788 57.6310508 90.3665989 49.8498602 96.9513109 40.695567 93.4136123 40.695567 81.4497788 46.3304823 68.7677903"></polygon>
                    </g>
                    <g id="con_drop2" transform="translate(200.967742, 137.535581)" fill="#3379A4">
                        <polygon id="Path-280" points="9.16716979 91.3146067 2.59408234 106.336313 1.12903226 114.324157 2.59408234 119.784332 9.16716979 126.262172 18.0645161 119.784332 18.0645161 114.324157 15.4170726 104.854498"></polygon>
                        <polygon id="Path-280-Copy-5" points="9.17684931 0 2.61091278 15.0217063 2.22774884e-14 22.3502464 2.61091278 28.4697251 9.17684931 34.9475655 18.0645161 28.4697251 18.0645161 17.4737828"></polygon>
                        <polygon id="Path-280-Copy-6" transform="translate(10.161290, 60.876404) scale(-1, 1) translate(-10.161290, -60.876404) " points="10.3058816 43.9662921 3.73994504 59.3974593 1.12903226 66.9257603 3.73994504 73.2120435 8.25359661 77.7865169 16.3316535 77.7865169 19.1935484 73.2120435 19.1935484 61.9163743"></polygon>
                    </g>
                </g>
            </g>
        </g>
    </g>
</svg>