<?xml version="1.0" encoding="UTF-8"?>
<svg width="80px" height="80px" viewBox="0 0 80 80" version="1.1" xmlns="http://www.w3.org/2000/svg" xmlns:xlink="http://www.w3.org/1999/xlink">
    <title>paint_9</title>
    <g id="Contents_ì½˜í…ì¸ " stroke="none" stroke-width="1" fill="none" fill-rule="evenodd">
        <g id="paint_9">
            <rect id="area" x="0" y="0" width="80" height="80"></rect>
            <g id="paint_5" transform="translate(19.000000, 10.000000)">
                <g id="con_spoon-copy-2"></g>
                <path d="M29.1286913,23.2689348 L30.5410316,24.4530395 L29.1286913,40.1714448 L28.4440477,50.9717707 L29.4925397,54 L32.7919181,54 L33.919712,50.9717707 L32.7919181,40.1714448 L32.7919181,24.4530395 L33.919712,23.2689348 L37.47877,20.7256857 C38.2072091,19.1762596 38.5714286,17.7306298 38.5714286,16.3887962 C38.5714286,14.3760458 36.8188696,8.38620993 35.1633039,7.60556569 C34.0595934,7.08513619 32.7682472,6.54994763 31.2892652,6 C28.8368868,6.86030182 27.2860672,8.1740656 26.6368063,9.94129133 C25.662915,12.5921299 24.8295649,18.1824365 26.6368063,20.7256857 C27.8416339,22.4211851 28.6722622,23.2689348 29.1286913,23.2689348 Z" id="Path-190" fill="#D8D8D8"></path>
                <path d="M21.5598559,7.22765407 C21.5752861,6.49610609 21.5752861,5.75355473 21.5598559,5 L20.2643864,5 L16.2721882,13.2648252 L15.5714286,29.0454923 C16.4409666,32.8293511 16.8757355,34.7212805 16.8757355,34.7212805 C16.8757355,34.7212805 16.4409666,40.1392977 15.5714286,50.9753319 L16.2721882,54 L19.1040782,54 L21.0394847,50.9753319 L21.0394847,29.6708337 C21.3709686,15.4402619 21.5444257,7.95920206 21.5598559,7.22765407 Z" id="Path-191" fill="#D8D8D8"></path>
                <path d="M9.84171248,24.0571562 L12.3555295,21.6671689 L13.5714286,19.4435364 L11.7065705,5.34166731 C11.1201562,5.1138891 10.8269491,5 10.8269491,5 C10.8269491,5 10.9821541,9.00179227 11.2925642,17.0053768 L10.2550879,17.0053768 L9.84171248,5 L9.0475169,5 L9.0475169,17.0053768 L7.76095539,17.0053768 L7.76095539,5 L7.13609734,5 L6.3853087,17.0053768 L5.5734475,16.7099202 L5.96410996,5 L5.18985128,5.34166731 L3.57142857,18.8453438 L4.03325822,20.6358539 L6.78354214,24.0571562 L7.13609734,32.6981926 L5.5734475,50.7831367 L6.78354214,54 L9.84171248,54 L10.8269491,50.7831367 L9.84171248,31.3660685 L9.84171248,24.0571562 Z" id="Path-192" fill="#D8D8D8"></path>
            </g>
        </g>
    </g>
</svg>