<?xml version="1.0" encoding="UTF-8"?>
<svg width="80px" height="80px" viewBox="0 0 80 80" version="1.1" xmlns="http://www.w3.org/2000/svg" xmlns:xlink="http://www.w3.org/1999/xlink">
    <title>paint_8</title>
    <g id="Contents_ì½˜í…ì¸ " stroke="none" stroke-width="1" fill="none" fill-rule="evenodd">
        <g id="paint_8">
            <rect id="area" x="0" y="0" width="80" height="80"></rect>
            <g transform="translate(15.000000, 18.000000)">
                <g id="Group-Copy-5" fill="#E79219">
                    <polygon id="Path-41" points="6.83939617 23.956232 6 19.8041484 12.2283545 8.47700083 22.0352711 4 31 8.47700083 21.0121327 13.978116 16.4172107 23.0621373 18.7240956 35"></polygon>
                    <path d="M34.2015301,10 L45.9866493,14.4468817 L49,24.9148472 L47.4205385,33.9461537 L39.2538924,41.3020836 L28.055679,43 L25.939,41.222 L25,32.6743308 L27.04221,22.8625142 L33.5,18.422268 L27.04221,21.5 L24.0352711,31.4833222 L24.421,39.947 L19.4030603,35.7329487 L18,25.2598605 L22.5940031,13.589343 L34.2015301,10 Z" id="Combined-Shape"></path>
                    <polygon id="Path-38" points="4.62180646 24 0.627446882 21.3516935 -1.58942499e-16 8.78586899 10.3990021 6.59933715e-16 20 1.59370161 11.0999571 7.00610955 4.62180646 17.6213989"></polygon>
                </g>
                <polygon id="Path-91" fill="#524534" points="20.5 2.69200966 12 7.05200807 5.50902886 17.2261408 5.50902886 24.4032258 8 24.4032258 8 17.6223437 14.2283545 9.47700083 24.0352711 5"></polygon>
                <polygon id="Path-92" fill="#524534" points="30.5 9.44623656 20 13.5 16.2699847 24 18.0518584 34.5053763 19.833732 36.2787918 18.5 25.5320833 23.3849923 14.8387097 36 11.2282138"></polygon>
            </g>
        </g>
    </g>
</svg>