<?xml version="1.0" encoding="UTF-8"?>
<svg width="80px" height="80px" viewBox="0 0 80 80" version="1.1" xmlns="http://www.w3.org/2000/svg" xmlns:xlink="http://www.w3.org/1999/xlink">
    <title>paint_3</title>
    <g id="Contents_ì½˜í…ì¸ " stroke="none" stroke-width="1" fill="none" fill-rule="evenodd">
        <g id="paint_3">
            <rect id="area" x="0" y="0" width="80" height="80"></rect>
            <g transform="translate(22.000000, 16.000000)">
                <path d="M34.980129,15.1672463 C34.6511801,10.429397 31.7998576,3.01086221 26.163693,0.870765947 C20.5273127,-1.26933032 12.6187239,0.785214475 11.5269761,4.31661338 C10.4350124,7.84801228 1.13680863,31.9949153 1.13680863,31.9949153 C1.13680863,31.9949153 -1.71019698,41.1399748 1.60670485,44.7892253 C4.92339083,48.4384757 10.8913103,49.5375502 15.0128851,45.1002223 L19.13446,40.6628944 L15.3053561,38.0972232 C15.3053561,38.0972232 10.3691794,45.6154953 7.51526674,43.9760498 C4.66135407,42.3366042 2.24042801,41.7508385 5.81030106,32.435549 C9.37995828,23.1202595 13.6504667,9.40234286 13.6504667,9.40234286 C13.6504667,9.40234286 17.7500252,0.732836022 25.143606,5.5409597 C32.5371867,10.3493016 27.949385,17.7250607 27.949385,17.7250607 L31.4450071,20.7726136 C31.4450071,20.7726136 35.309078,19.9050955 34.980129,15.1672463" id="Fill-1" fill="#405738"></path>
                <g id="Group-5-Copy-3" transform="translate(16.000000, 19.000000)" fill="#8FA984">
                    <path d="M3.63817519,18.1252524 C3.63817519,18.1252524 2.40313769,18.1557283 2.21883988,17.2056486 C2.03476227,16.255569 3.70775477,16.1264195 4.60634418,16.6675259 C5.5049336,17.2088454 3.63817519,18.1252524 3.63817519,18.1252524 L3.63817519,18.1252524 Z M0,17.8166577 L5.12885158,21 L16,2.73749962 L11.4548682,0 L0,17.8166577 Z" id="Fill-3"></path>
                </g>
                <polygon id="Path-11" fill="#D7DED3" points="24.6326652 21 24 22.2335731 29.2071124 26 30 23.8159336"></polygon>
                <polygon id="Path-11-Copy" fill="#D7DED3" points="22.0340007 26 21 27.2180669 27.5341221 30 28 28.42364"></polygon>
                <polygon id="Path-11-Copy-2" fill="#D7DED3" points="20.0340007 30 19 31.2180669 25.5341221 34 26 32.42364"></polygon>
                <path d="M22,36.985937 C20.9212393,37.8548408 19.9737981,38.1653519 19.1576763,37.9174703 C17.9334937,37.5456479 17.7264998,36.0184691 18.319038,35.3499047 C18.9115762,34.6813403 20.9106212,35.1764078 20.9106212,35.1764078 C20.9106212,35.1764078 21.2737475,35.7795842 22,36.985937 Z" id="Path-20" fill="#524534"></path>
            </g>
        </g>
    </g>
</svg>