<?xml version="1.0" encoding="UTF-8"?>
<svg width="80px" height="80px" viewBox="0 0 80 80" version="1.1" xmlns="http://www.w3.org/2000/svg" xmlns:xlink="http://www.w3.org/1999/xlink">
    <title>paint_12</title>
    <g id="Contents_ì½˜í…ì¸ " stroke="none" stroke-width="1" fill="none" fill-rule="evenodd">
        <g id="paint_12">
            <rect id="area" x="0" y="0" width="80" height="80"></rect>
            <g id="con_light" transform="translate(20.000000, 11.000000)">
                <line x1="9" y1="47.5" x2="32" y2="47.5" id="Path-108-Copy" fill="#405738"></line>
                <polygon id="Path-109-Copy" fill="#D7DED3" points="12.8908265 24 11.3748488 28.3739895 11 36.5951824 13.7271221 46 30.0401072 46 33 36.2293565 33 29.97295 30.5103571 24"></polygon>
                <polygon id="Path-110-Copy" fill="#88AA80" points="11.1417269 46 5.96619972 47.1783596 5.96619972 50.2676017 3 53.8256965 3 58 39 58 39 53.8256965 36.9415845 50.2704605 35.3730259 46.7152245"></polygon>
                <path d="M35.149134,20.8256486 C32.7998541,21.8476798 31.6252142,23.4538947 31.6252142,25.6442934 C31.6252142,27.834692 32.0877646,33.7729255 33.0128654,43.4589938 L38,50.632956 L35.149134,53 L31.6252142,50.632956 L28,34.9626671 L28,21.9874096 L35.149134,17 L35.149134,20.8256486 Z" id="Path-112" fill="#88AA80" transform="translate(33.000000, 35.000000) rotate(180.000000) translate(-33.000000, -35.000000) "></path>
                <path d="M10.50751,19.9901737 C8.03157374,20.987327 6.79400104,22.5554272 6.79479195,24.6944743 C6.79558286,26.8335214 7.28528754,32.6327201 8.26390601,42.0920702 L13.523285,49.0997941 L10.5191276,51.4102319 L6.80381487,49.0973045 L2.97692737,33.792973 L2.97224225,21.1219065 L10.5061287,16.2542134 L10.50751,19.9901737 Z" id="Path-112-Copy" fill="#88AA80" transform="translate(8.247764, 33.832223) rotate(10.000000) translate(-8.247764, -33.832223) "></path>
                <polygon id="Path-115-Copy" fill="#D7DED3" points="32.4344559 20.8442623 35.6381141 5.60799461 34.036285 1.78600359 10.9851619 1.78600359 9.05099585 7.21837215 10.9851619 19.459299 9.05099585 22 7 7.21837215 9.05099585 -2.44668102e-17 35.6381141 0 37 4.10313433 34.036285 20.8442623"></polygon>
                <polygon id="Path-107" fill="#88AA80" points="40 23 3 22.2440336 11.5986276 16.4588871 12.5348282 11 30.9423593 11 32.7302898 16.4588871"></polygon>
                <polygon id="Path-48" fill="#EAA496" points="22.3243138 35.8497252 24.4383495 35.8497252 26 39.9627196 22.3243138 43 18 41.3681925 18 35.8497252 20.6618267 30"></polygon>
            </g>
        </g>
    </g>
</svg>