<?xml version="1.0" encoding="UTF-8"?>
<svg width="80px" height="80px" viewBox="0 0 80 80" version="1.1" xmlns="http://www.w3.org/2000/svg" xmlns:xlink="http://www.w3.org/1999/xlink">
    <title>paint_14</title>
    <g id="Contents_ì½˜í…ì¸ " stroke="none" stroke-width="1" fill="none" fill-rule="evenodd">
        <g id="paint_14">
            <rect id="area" x="0" y="0" width="80" height="80"></rect>
            <g id="Group-20" transform="translate(16.000000, 21.000000)">
                <path d="M33.7364446,0 L35.975469,1.39686244 L35.467295,5.63722304 L51,6.89439924 L50.6361647,22.0125664 L50.3753955,32.8481034 L39.0251369,41 L2.50310004,35.9745064 L1.84478379,13.3302422 L0,13.3302422 L1.37968602,6.89439924 L14.8565964,3.55991197 L20.5719925,3.55991197 L21.2967959,0 L33.7364446,0 Z M44,14 L42.4050859,14.5975556 L36.8500437,17.6146444 L19.2322272,15.9439574 L7.53817854,14.5975556 L5,14.5975556 L36.8500437,18.9990869 L37.5353171,28.5213472 L38.0594267,29 L38.0594267,18.9990869 L44,14 Z M32.4660446,2.58630466 L22.9917454,2.58630466 L22.3648118,8.13206358 L31.4336223,8.99710842 L32.4660446,2.58630466 Z" id="Combined-Shape" fill="#D8D8D8"></path>
                <polygon id="Path-118" fill="#3379A4" points="50.1684806 32 38.2361008 38.6616653 2.58965288 33.8872078 2.50310004 37.3455441 39.0251369 41 51 35.4318464"></polygon>
                <polygon id="Path-180" fill="#3379A4" points="22.757419 25.4907111 22.757419 21.4776268 19.3935603 21 19.3935603 25.0577307 16 25.0577307 16 28.3005303 19.3935603 28.8439872 19.8571392 33 22.757419 33 22.757419 29.2748702 26.5761208 29.2748702 27 26.1259489"></polygon>
                <polygon id="Path-180" fill="#3379A4" points="22.757419 25.4907111 22.757419 21.4776268 19.3935603 21 19.3935603 25.0577307 16 25.0577307 16 28.3005303 19.3935603 28.8439872 19.8571392 33 22.757419 33 22.757419 29.2748702 26.5761208 29.2748702 27 26.1259489"></polygon>
                <polygon id="Path-180" fill="#3379A4" points="22.757419 25.4907111 22.757419 21.4776268 19.3935603 21 19.3935603 25.0577307 16 25.0577307 16 28.3005303 19.3935603 28.8439872 19.8571392 33 22.757419 33 22.757419 29.2748702 26.5761208 29.2748702 27 26.1259489"></polygon>
                <polygon id="Path-105" fill="#3379A4" points="34.8177798 8.99710842 35.975469 1.39686244 33.7364446 4.5732635e-13 21.5 4.57411886e-13 19.3586451 8.99710842 22.3648118 8.13206358 22.9917454 2.58630466 32.4660446 2.2010316 30.9983015 10.5010943 33.7364446 10.5010943"></polygon>
            </g>
        </g>
    </g>
</svg>