<?xml version="1.0" encoding="UTF-8"?>
<svg width="80px" height="80px" viewBox="0 0 80 80" version="1.1" xmlns="http://www.w3.org/2000/svg" xmlns:xlink="http://www.w3.org/1999/xlink">
    <title>paint_1</title>
    <defs>
        <polygon id="path-1" points="0 0 61 0 61 37 0 37"></polygon>
    </defs>
    <g id="Contents_ì½˜í…ì¸ " stroke="none" stroke-width="1" fill="none" fill-rule="evenodd">
        <g id="paint_1">
            <rect id="area" x="0" y="0" width="80" height="80"></rect>
            <g transform="translate(10.000000, 21.000000)">
                <g id="Group-3-Copy-2">
                    <mask id="mask-2" fill="white">
                        <use xlink:href="#path-1"></use>
                    </mask>
                    <g id="Clip-2"></g>
                    <path d="M37.2215527,33.7931106 L61,28.445925 L46.0078586,0 L33.399664,2.62906991 L18.1467476,0.904675896 L0,31.4231796 L8.50740402,33.1557495 L17.2743268,7.00510631 L20.0904458,37 L33.6968722,34.5010328 C33.7196653,34.5513321 33.7318695,34.5778147 33.7318695,34.5778147 L35.5510131,34.1688443 L22.2220529,7.8390433 L37.2215527,33.7931106 Z" id="Fill-1" fill="#E79219" mask="url(#mask-2)"></path>
                </g>
                <polygon id="Path-129" fill="#524534" points="8 33 19 27.7079035 16.9666284 7"></polygon>
                <path d="M8.69417523,33 L0,31.3235115 C1.29057355,29.7745038 1.93586032,29 1.93586032,29 C1.93586032,29 4.62390688,29.2951764 10,29.8855291 L8.69417523,33 Z" id="Path-130" fill="#524534"></path>
                <polygon id="Path-131" fill="#524534" points="20 37 20 33.0979695 33.3301564 31 36 34"></polygon>
                <polygon id="Path-132" fill="#524534" points="35 31.1920614 36.9134273 34 61 28.6811608 58.9057149 25"></polygon>
            </g>
        </g>
    </g>
</svg>