<?xml version="1.0" encoding="UTF-8"?>
<svg width="80px" height="80px" viewBox="0 0 80 80" version="1.1" xmlns="http://www.w3.org/2000/svg" xmlns:xlink="http://www.w3.org/1999/xlink">
    <title>paint_7</title>
    <defs>
        <polygon id="path-1" points="0 0 45.2435888 0 45.2435888 31.9479919 0 31.9479919"></polygon>
        <polygon id="path-3" points="0 0 16.9992191 0 16.9992191 17.3995731 0 17.3995731"></polygon>
    </defs>
    <g id="Contents_ì½˜í…ì¸ " stroke="none" stroke-width="1" fill="none" fill-rule="evenodd">
        <g id="paint_7">
            <rect id="area" x="0" y="0" width="80" height="80"></rect>
            <g transform="translate(12.000000, 19.000000)">
                <polygon id="Fill-1" fill="#E9DFD4" points="19.3289474 8 3 23 5.01315789 27 20 9.66666667"></polygon>
                <g id="Group-14">
                    <g id="Group-4" transform="translate(5.389127, 11.052008)">
                        <mask id="mask-2" fill="white">
                            <use xlink:href="#path-1"></use>
                        </mask>
                        <g id="Clip-3"></g>
                        <path d="M2.73313297,16.0511062 C3.40083646,14.0434631 3.49297955,12.5327117 3.49297955,12.5327117 C3.49297955,12.5327117 5.84908261,14.3780703 6.73935394,11.7012129 C7.62962526,9.02435551 7.35119291,8.0305722 7.35119291,8.0305722 C7.35119291,8.0305722 7.99441394,9.37903912 9.70373488,8.0305722 C11.4132784,6.68210529 10.6216046,4.21471198 10.6216046,4.21471198 C10.6216046,4.21471198 11.7279893,5.76260477 13.0173248,4.21471198 C14.3066602,2.66681919 14.2338805,0 14.2338805,0 C14.2338805,0 21.4288308,12.0358201 25.8801874,13.708856 C30.3315441,15.3818918 34.7829007,19.7317851 45.2435888,18.0587492 C45.2435888,18.0587492 36.189582,35.814433 22.6217944,31.94662 C9.05400675,28.0788071 0,17.0549277 0,17.0549277 C0,17.0549277 2.06542948,18.0587492 2.73313297,16.0511062 Z" id="Fill-2" fill="#CD674B" mask="url(#mask-2)"></path>
                    </g>
                    <path d="M40.617074,23.0878282 C40.617074,23.0878282 37.9255612,37.6141294 30.3687156,42.8989152 C30.3687156,42.8989152 54.1937117,39.1489726 57.3096614,12.0457914 C57.3096614,12.0457914 56.41939,15.7264703 53.7485761,14.3880416 C53.7485761,14.3880416 54.2101817,17.3995062 52.0875523,18.5706313 C49.9649229,19.7417564 49.2972194,17.064899 49.2972194,17.064899 C49.2972194,17.064899 49.5197873,20.0763636 48.4069481,21.0801851 C47.2941089,22.0840066 45.2909985,22.4186138 45.0684306,20.7455779 C45.0684306,20.7455779 44.8458628,24.0916497 43.0653201,24.4262569 C41.2847775,24.760864 40.617074,23.0878282 40.617074,23.0878282" id="Fill-5" fill="#CD674B"></path>
                    <polygon id="Fill-7" fill="#E9DFD4" points="58 11.0518408 39.9493037 23.422268 39.2816002 21.0800178 58 9.0341595"></polygon>
                    <g id="Group-11" transform="translate(0.000000, 5.692010)">
                        <mask id="mask-4" fill="white">
                            <use xlink:href="#path-3"></use>
                        </mask>
                        <g id="Clip-10"></g>
                        <polygon id="Fill-9" fill="#E9DFD4" mask="url(#mask-4)" points="16.9992191 3.50199869 -6.67703494e-05 0 2.89331504 17.3995731 4.38919343 16.2321287 0.890204555 1.67303588 16.9992191 4.35993149"></polygon>
                    </g>
                    <polygon id="Fill-12" fill="#E9DFD4" points="57.3096614 10.1402704 53.5260082 0 39.997 21.2261408 40.617074 20.7456449 53.3034404 2.00764305 56.5173199 10.6130704"></polygon>
                </g>
            </g>
            <polygon id="Path-94" fill="#FFFFFF" points="49.9870953 46.3009115 47.1621209 57.6935896 43.0128133 60.2573641 45.7355615 60.2573641 48.1698739 57.6935896 51.5 46.4723533"></polygon>
        </g>
    </g>
</svg>