<?xml version="1.0" encoding="UTF-8"?>
<svg width="80px" height="80px" viewBox="0 0 80 80" version="1.1" xmlns="http://www.w3.org/2000/svg" xmlns:xlink="http://www.w3.org/1999/xlink">
    <title>paint_10</title>
    <g id="Contents_ì½˜í…ì¸ " stroke="none" stroke-width="1" fill="none" fill-rule="evenodd">
        <g id="paint_10">
            <rect id="area" x="0" y="0" width="80" height="80"></rect>
            <g id="Group-22" transform="translate(10.000000, 24.000000)">
                <g id="Group-Copy-3" fill="#EAA496">
                    <path d="M22.2672546,0 L59,13.4236581 L59,14.8927764 L48.91,20.803 L29.5,35 C18.6473028,24.827307 10.7890387,17.4614231 5.92520779,12.9023483 L0,9.37054534 L0,7.34839993 L0.243867985,7.26792124 C0.261932281,7.26195985 0.281000148,7.25566728 0.301071587,7.24904352 L0.508810982,7.1804876 C0.613182466,7.14604404 0.7336111,7.10630148 0.870096886,7.06125991 L1.08686843,6.9897233 C3.64196263,6.14651858 10.7020913,3.81661082 22.2672546,0 Z" id="Combined-Shape"></path>
                </g>
                <polygon id="Path-2" fill="#E9DFD4" opacity="0.441522507" points="28.5941561 3.5699896 6 11.2739538 7.11166921 12 32 3.5699896 32 3 30.2424201 3"></polygon>
                <polygon id="Path-3" fill="#E9DFD4" opacity="0.441522507" points="14 19.2515775 38.0162011 5 39 5.62294907 15.0251578 20"></polygon>
                <polygon id="Path-4" fill="#E9DFD4" opacity="0.441522507" points="46.5687732 9 20 25.7612627 20 27 48 9.59334157"></polygon>
                <polygon id="Path-5" fill="#E9DFD4" opacity="0.441522507" points="54.7227255 12 27 32.2863431 28.0586095 33 57 12 55.6692143 12"></polygon>
                <polygon id="Path-69" fill="#E9DFD4" opacity="0.441522507" points="19.4892052 1 18 1.61883837 52.5974824 18 54 17.4986136"></polygon>
                <polygon id="Path-75" fill="#E9DFD4" opacity="0.441522507" points="11.5979116 3 10 3.60173374 43.7863878 24 45 23.2490576"></polygon>
                <polygon id="Path-76" fill="#E9DFD4" opacity="0.441522507" points="4.88666388 5 4 6.0149511 32.7710445 33 34 32.2470039"></polygon>
                <g id="Group-27" transform="translate(21.000000, 13.000000)" fill="#C1897E">
                    <polygon id="Path-97" points="14.7402696 3 18 1.18728124 17.5352083 2.25755666e-17 13.4642619 1.71389596"></polygon>
                    <polygon id="Path-98" points="8.06412858 3 10.9051966 0.811760167 8.98766009 9.09442326e-13 6.22779287 2.19653537"></polygon>
                    <polygon id="Path-99" points="1.08595388 2.90502532 4.55677452 0.426971492 -3.58189e-17 0.477439118"></polygon>
                </g>
                <g id="Group-15" transform="translate(16.829060, 7.000000)">
                    <g id="Group-33">
                        <path d="M3.01692091,2 C2.82663654,2 2.26331289,2.21135172 1.32694996,2.63405516 L0.496261138,4.01205506 L0,5.93661983 L0.23117661,7.47097122 L0.922816196,8.38834413 L2.01282431,9 L4.60935538,8.38834413 L5.55768984,7.02098943 L5.81196581,5.5 L5.55768984,4.01205506 L4.92830495,2.99792483 C3.8443333,2.33264161 3.20720529,2 3.01692091,2 Z" id="Path-281" fill="#CD674B"></path>
                        <polygon id="Path-43" fill="#4D4D4D" points="2.90598291 4 2.33045048 1.22797732 1.60610821 1.42870984e-17 0.968660969 0 1.93732194 1.22797732 2.33045048 4"></polygon>
                    </g>
                    <g id="Group-32" transform="translate(7.749288, 0.000000)">
                        <path d="M3.01692091,2.11764706 C2.82663654,2.11764706 2.30222701,2.28382509 1.44369231,2.61618114 L0,5.17609506 L0,5.98810521 L0.23117661,7.49666918 L2.01282431,9 L4.60935538,8.39862406 L5.55768984,7.05425012 L5.81196581,5.55882353 L5.55768984,4.09588607 L4.60935538,2.61618114 C3.73801677,2.28382509 3.20720529,2.11764706 3.01692091,2.11764706 Z" id="Path-281-Copy" fill="#CD674B"></path>
                        <path d="M2.76719399,4.23529412 L3.14984161,1.98697688 L2.76719399,0 L2.27365099,0 L2.27365099,1.98697688 C2.14132539,3.48585504 2.14132539,4.23529412 2.27365099,4.23529412 C2.40597658,4.23529412 2.57049092,4.23529412 2.76719399,4.23529412 Z" id="Path-44" fill="#5B5B5B"></path>
                    </g>
                    <g id="Group-31" transform="translate(14.529915, 0.000000)">
                        <path d="M3.01692091,2 C2.82663654,2 2.26331289,2.21135172 1.32694996,2.63405516 L0.496261138,4.01205506 L0,5.93661983 L0.23117661,7.47097122 L0.922816196,8.38834413 L2.01282431,9 L3.01692091,9 L4.60935538,8.38834413 L5.55768984,7.02098943 L5.81196581,5.5 L5.55768984,4.01205506 L4.21533441,2.48724001 C3.60667645,2.16241334 3.20720529,2 3.01692091,2 Z" id="Path-281-Copy-2" fill="#CD674B" transform="translate(2.905983, 5.500000) scale(-1, -1) translate(-2.905983, -5.500000) "></path>
                        <polygon id="Path-45" fill="#5B5B5B" points="2.57577882 3.75317855 2.57577882 1.87658927 3.87464387 0.344391077 2.86511005 -1.52222731e-17 2.11147685 1.43969543 1.93732194 2.28713113 1.93732194 4"></polygon>
                    </g>
                </g>
            </g>
        </g>
    </g>
</svg>