<?xml version="1.0" encoding="UTF-8"?>
<svg width="80px" height="80px" viewBox="0 0 80 80" version="1.1" xmlns="http://www.w3.org/2000/svg" xmlns:xlink="http://www.w3.org/1999/xlink">
    <title>paint_4</title>
    <g id="Contents_ì½˜í…ì¸ " stroke="none" stroke-width="1" fill="none" fill-rule="evenodd">
        <g id="Group">
            <rect id="area" x="0" y="0" width="80" height="80"></rect>
            <g id="paint_4" transform="translate(15.000000, 10.000000)">
                <g id="Group-2-Copy-4" fill="#D8D8D8">
                    <path d="M33.1807136,0 L35.3156263,0.281963578 L35.9547229,0.970401161 L36.2173913,1.67435144 L9.237,45.788 L6.83393339,44.0223882 L6.06563371,44.3079607 L8.41341078,46.0965322 L6.38058284,49.3495445 L7.20284355,50.2167796 L6.38058284,51.5365974 L5.18960655,51.1356909 L3.01139437,54.6428571 L1.49649229,54.0914586 L0.474191407,53.3835266 L0,52.0621761 L5.44246214,43.9514038 L4.82922108,43.6314146 L33.1807136,0 Z" id="Combined-Shape"></path>
                    <path d="M18.9968015,51.4568025 L15.8133913,48.9838571 L46.0895083,2.5006764 L47.3336671,2.14285714 L48.7213393,2.92999243 L49,3.90742759 L19.5570558,52.2803227 L19.1509706,51.9290272 L17.6715913,54.0333994 L16.5814038,53.715306 L12.9388404,60 L11.7173913,59.3355491 L15.7438129,52.7645891 L14.7623867,51.9290272 L15.7438129,49.7979313 L18.9968015,51.4568025 Z" id="Combined-Shape"></path>
                </g>
                <polygon id="Path-106" fill="#524534" points="10.2375522 46 6 43.243853 33.9817759 -3.37706495e-15 36.1037149 0.283069037 37 0.987497604 37 1.47730133"></polygon>
                <polygon id="Path-122" fill="#524534" points="16 48.522801 20.0565398 52 50 3.75973239 49.7166022 2.78497714 48.3053402 2 46.7547476 2.78497714"></polygon>
                <path d="M7.2522713,49 C6.41742377,50.1301551 6,50.6952327 6,50.6952327 C6,50.6952327 6.41742377,50.7968218 7.2522713,51 L8,49.7361592 L7.2522713,49 Z" id="Path-123" fill="#524534"></path>
                <polygon id="Path-124" fill="#524534" points="16.1389918 53 17 53.9197844 13.2555982 60 12 59.3571676"></polygon>
            </g>
        </g>
    </g>
</svg>