<?xml version="1.0" encoding="UTF-8"?>
<svg width="80px" height="80px" viewBox="0 0 80 80" version="1.1" xmlns="http://www.w3.org/2000/svg" xmlns:xlink="http://www.w3.org/1999/xlink">
    <title>paint_11</title>
    <g id="Contents_ì½˜í…ì¸ " stroke="none" stroke-width="1" fill="none" fill-rule="evenodd">
        <g id="paint_11">
            <rect id="area" x="0" y="0" width="80" height="80"></rect>
            <g id="Group-23" transform="translate(10.000000, 22.000000)">
                <g id="Group-6-Copy-3" fill="#E9DFD4">
                    <path d="M58.999,7.246 L59,24.3871154 L24.6666046,36 L3.00003876,25.612488 L3,8.983 L25.4695728,18 L58.999,7.246 Z M9.34079468,14.5027113 L8.76089341,15.1976675 L8.76089341,17.3600314 C14.3852207,20.0631912 17.2572177,21.4435281 17.3768842,21.5010422 L17.3807864,21.5029176 L17.3807864,19.4955848 L16.6122361,17.7892495 L9.34079468,14.5027113 Z M46.4515355,14.9586643 L39.8254687,16.3627335 L38.8957175,17.6330065 L39.2433501,19.0438302 L40.1440024,19.5302963 L47.1424217,17.3600314 L47.1424217,15.3752863 L46.4515355,14.9586643 Z M36.8717754,0 L36.937,0.021 L36.065758,13.2132002 C32.8529233,14.1630754 29.3208616,15.2118255 25.4695728,16.3594506 L3.208,7.565 L36.8717754,0 Z M37.997,0.353 L58.4693264,6.76857497 C55.3904114,7.56514353 48.4640413,9.55339362 37.6902163,12.7333253 L37.997,12.5 L37.997,0.353 Z" id="Combined-Shape"></path>
                    <polygon id="Path-90" points="24 17 24 34 24.5487226 33.2064472 25 17"></polygon>
                    <polygon id="Path-93-Copy" points="2 19 5 19.4708573 4.21126541 21.5722302 2 22"></polygon>
                    <polygon id="Path-93-Copy-3" points="57 17 59 17.2798183 59 19.5722302 57 20"></polygon>
                    <polygon id="Path-93-Copy-2" transform="translate(1.500000, 14.500000) rotate(90.000000) translate(-1.500000, -14.500000) " points="6.96749303e-14 13 3 13.4708573 2.21126541 15.5722302 7.78244571e-17 16"></polygon>
                    <polygon id="Path-93-Copy-4" transform="translate(58.500000, 12.500000) rotate(90.000000) translate(-58.500000, -12.500000) " points="57 11 60 11.0665963 59.778618 13.5722302 57 14"></polygon>
                </g>
                <path d="M3,8.55567643 C3,8.79459279 3,9.51122209 3,10.7055643 L25.3177965,19.5302963 L59,8.86314351 L59,7.47576904 L25.3177965,17.2444803 C10.4392655,11.213028 3,8.31676007 3,8.55567643 Z" id="Path-125" fill="#EAA496"></path>
                <polygon id="Path-126" fill="#EAA496" points="3.5 7.69930233 37.0054701 -5.73477868e-17 37.0054701 2.26750534 5.88576492 8.53467515"></polygon>
                <polygon id="Path-127" fill="#EAA496" points="37.997 0.541176452 37.997 1.98767635 55.4169939 7.47576904 58 6.5"></polygon>
                <polygon id="Path-128" fill="#EAA496" points="3.5 25.5 25 36 59 24.3871154 59 22 25 33.4585104 3 23.0102937"></polygon>
            </g>
        </g>
    </g>
</svg>