<?xml version="1.0" encoding="UTF-8"?>
<svg width="58px" height="69px" viewBox="0 0 58 69" version="1.1" xmlns="http://www.w3.org/2000/svg" xmlns:xlink="http://www.w3.org/1999/xlink">
    <title>Group 4</title>
    <g id="Prototype_디자인" stroke="none" stroke-width="1" fill="none" fill-rule="evenodd">
        <g id="Editor_2-3-Copy" transform="translate(-169.000000, -1994.000000)">
            <g id="Group-4" transform="translate(169.000000, 1994.000000)">
                <path d="M23,34.3815227 C23,34.3815227 19.8333333,32.9210152 13.5,30 L4,35.7278883 L4,63 L14.7835824,59.3970362 L23,63 C23,43.9210152 23,34.3815227 23,34.3815227 Z" id="Path-141" fill="#E9DFD4"></path>
                <path d="M43,34.3815227 C43,34.3815227 39.3381976,32.9210152 32.0145928,30 L24,35.7278883 L24,63 L31.1147054,59.3970362 L43,63 C43,43.9210152 43,34.3815227 43,34.3815227 Z" id="Path-141" fill="#E9DFD4" transform="translate(33.500000, 46.500000) scale(-1, 1) translate(-33.500000, -46.500000) "></path>
                <polygon id="Path-142" fill="#CD674B" points="2.21543946 41 -6.51127085e-17 41 0 69 22.4171031 66.8165389 45.7025923 69 47 69 47 41 45.7025923 41 45.7025923 66.8165389 37.1676687 63.1344257 26.5124598 65.5017633 21.4581136 66.1781148 14.748497 63.1344257 2.21543946 66.8165389"></polygon>
                <polygon id="Path-2-Copy" fill="#D7DED3" points="16 8 13.5685504 5.66578637 12 3.85227385 12.4392969 1.30251001 14.067517 2.14918599e-16 16 2.26204419 17.3114823 0 20 0.757478068 20 3.33372731 17.3114823 7.09777869"></polygon>
                <polygon id="Path-2-Copy-2" fill="#D7DED3" points="26.6428368 24 23.288392 18.8290084 20 15.5843771 21.730466 12.7583117 23.288392 12 26.6428368 14.0933271 29.783464 12 32.1612646 12 33 16.6812881 28.4521668 20.8213624"></polygon>
                <path d="M40.9379151,21 L47.1629782,23.2822535 L51.5900982,28.8208286 L51.5900982,35.5 L49.8179519,39.4793592 L57.0495042,46.496184 L58,48.4170954 L56.5526377,50 L50.3996364,44.7396796 L47.1629782,41.5173002 L43.0187011,43.2264271 L38.3271141,43.2264271 L32.4133582,40.6181878 L29,35.3794348 L30.3433814,28.1399391 L32.9977798,23.8002243 L40.9379151,21 Z M39.0452168,24.0526316 C35.8130617,25.4603366 34.084217,26.1641892 33.8586826,26.1641892 C33.6331483,26.1641892 32.7973712,27.8288961 31.3513514,31.1583099 L31.3513514,31.1583099 L31.3513514,34.4575515 L35.5810274,40.0468042 L41.3060777,40.8421053 L45.0072143,40.0468042 L47.7249637,37.6970218 L49.3783784,32.1645302 L47.2660345,27.099888 L44.1718907,24.5649869 Z" id="Combined-Shape" fill="#E79219"></path>
            </g>
        </g>
    </g>
</svg>