<?xml version="1.0" encoding="UTF-8"?>
<svg width="204px" height="177px" viewBox="0 0 204 177" version="1.1" xmlns="http://www.w3.org/2000/svg" xmlns:xlink="http://www.w3.org/1999/xlink">
    <title>Group 9</title>
    <g id="Prototype_디자인" stroke="none" stroke-width="1" fill="none" fill-rule="evenodd">
        <g id="Dictionary_1-1-Copy-5" transform="translate(-199.000000, 20.000000)">
            <g id="Group-9" transform="translate(199.000000, -20.000000)">
                <g id="con_flower">
                    <g id="Group-4" fill="#EAA496">
                        <polygon id="Path-20-Copy" points="6.70965563 70.2748418 23.9975059 77.1745212 45.358569 70.2748418 69.8667463 77.1745212 89.8972729 70.2748418 113.474442 80.0877648 132.981281 70.2748418 156 77.1745212 152.358426 88.7267555 132.981281 80.0877648 113.474442 88.7267555 89.8972729 80.0877648 66.0752134 88.7267555 45.358569 80.0877648 23.9975059 88.7267555 -3.05337859e-16 79.5007986"></polygon>
                        <polygon id="Path-20-Copy" transform="translate(78.000561, 79.504455) rotate(100.000000) translate(-78.000561, -79.504455) " points="5.72457115 70.585025 23.2393276 77.3459103 44.9185438 70.4889752 69.7554545 77.2319166 90.0853698 70.3782881 113.971006 79.9963245 133.776985 70.2712163 157.103431 77.0178593 153.382202 88.4186932 133.752947 79.9478464 113.949844 88.5153272 90.061332 80.0549182 65.8821517 88.6331231 44.894506 80.1656053 23.2110292 88.7376942 -1.1023096 79.6995161"></polygon>
                        <polygon id="Path-20-Copy" transform="translate(77.985900, 79.500807) rotate(50.000000) translate(-77.985900, -79.500807) " points="6.03131853 69.8312906 23.5151204 76.7966787 45.0095068 70.1078528 69.7751504 77.1249078 89.9276646 70.4265609 113.774916 80.3257087 133.378733 70.7348596 156.642229 77.7412564 153.051111 89.1703241 133.447946 80.4652949 113.835849 88.8920798 89.9968778 80.1569962 66.0327959 88.5529024 45.07872 79.8382881 23.5966014 88.2518046 -0.67042782 78.9316811"></polygon>
                        <polygon id="Path-20-Copy" transform="translate(78.004577, 79.492382) rotate(-40.000000) translate(-78.004577, -79.492382) " points="6.34347317 70.8346676 23.6863577 77.569804 45.2242187 70.558105 69.8307409 77.2415744 90.0300841 70.2393964 113.679465 79.8255297 133.372528 69.9310973 156.480657 76.6252249 152.735759 88.1351465 133.303315 79.6859433 113.618532 88.4133913 89.9608709 79.9942425 65.9349836 88.7525691 45.1550054 80.3129511 23.6048766 89.0536674 -0.471502964 80.0540342"></polygon>
                    </g>
                    <path d="M77.9008451,68.0049094 C77.2133029,68.0049094 75.177882,68.6389646 71.7945824,69.9070749 L68.7931083,74.0410746 L67,79.8147689 L67.8352955,84.4178231 L70.3343521,87.1699418 L74.2728078,89.0049094 L83.6546855,87.1699418 L87.0812411,83.0678777 L88,78.5049094 L87.0812411,74.0410746 L84.8071254,70.9986839 C80.8904808,69.0028342 78.5883873,68.0049094 77.9008451,68.0049094 Z" id="Path-281" fill="#CD674B"></path>
                </g>
                <g id="con_leaf" transform="translate(109.000000, 42.000000)" fill="#405738">
                    <path d="M95,0 C82.7369508,13.6691356 72.1945541,25.6441327 63.3728098,35.9249911 L71.4158874,32.5112365 C77.029118,30.0551829 79.8357332,28.8271562 79.8357332,28.8271562 L79.8357332,28.8271562 L79.8497163,28.8348074 C80.1060724,28.9750798 83.8873255,31.0440985 91.1934754,35.0418633 L91.1934754,35.0418633 L79.8357332,42.9616227 L71.4158874,44.6042605 L58.7461133,41.3475958 C52.8331723,48.3198672 47.8153394,54.4108234 43.6926145,59.6204644 L52.7946881,53.4444321 L64.3805783,48.5914972 L77.44883,54.6927233 L70.0973272,60.2281654 L57.2075456,63.3067434 L41.3171839,63.3067434 L42.1373505,61.5983022 C37.97918,66.9218037 34.8432062,71.2388597 32.729429,74.5494704 C31.0094209,77.2433575 29.3887075,79.9188822 27.8631728,82.5582466 C30.0538783,80.6852048 31.7217079,79.2586046 32.8676147,78.2784379 L33.1689979,78.0206458 C34.2260229,77.1165054 34.7545354,76.6644352 34.7545354,76.6644352 C34.7545354,76.6644352 37.5989202,75.4806651 43.2876898,73.1131249 L43.2876898,73.1131249 L60.3230312,76.6644352 C51.6320196,82.635449 46.2471849,86.3166703 44.1685271,87.7080992 L43.8629222,87.9120073 C43.5857826,88.096201 43.3940384,88.2212514 43.2876898,88.2871586 C43.0993641,88.4038693 42.6252326,88.4658718 41.8652955,88.4731662 L41.5460776,88.4731662 C38.9261347,88.4503104 33.5002147,87.8903423 25.2683178,86.793262 L25.4630903,86.8202342 C23.2011226,90.9436929 21.1738567,94.951453 19.3647768,98.7720977 L20.2552628,98.4923448 L32.5216213,92.6294288 L46.6403206,95.5608868 L41.3171839,102.408251 L27.5269022,107.159863 L15.5969445,107.160384 C9.08047874,122.483269 6.51907197,133.157869 6.51907197,133.157869 C6.51907197,133.157869 5.45820021,133.771913 3.33645669,135 L0,133.157869 C6.24414739,116.935541 11.7071807,103.868508 16.3890998,93.9567682 L2.25667161,81.3915654 L4.75117888,62.257044 L17.5162759,74.1725512 L19.8266472,86.9738084 C21.5380496,83.6575465 23.1247096,80.8451794 24.5866271,78.5367071 C26.1373218,76.0880491 27.7161594,73.6640913 29.3149346,71.2699327 L18.1828904,66.1413372 L15.7821003,39.9320847 L29.5161516,53.6203277 L32.9297349,65.9537594 C35.9295572,61.6188441 38.9764842,57.3986107 42.0188009,53.3251975 L30.964286,43.2724796 L29.5161516,20.5778965 L39.9178666,28.7744685 L45.470893,39.3387411 L46.4286586,47.5154584 C49.3586757,43.7158683 52.2608899,40.0685482 55.0883405,36.6026822 L47.9368776,29.8995518 L41.3171839,14.2318756 L46.671288,2.96969481 L58.6393814,15.6325557 L58.6399955,32.2953409 C73.5568124,14.3949725 85.6995379,2.17422629 87.6191194,0.262350772 L87.7875684,0.0949465568 C87.8511728,0.0318989917 87.8835787,0 87.8835787,0 L95,0 L95,0 Z" id="Combined-Shape"></path>
                </g>
            </g>
        </g>
    </g>
</svg>