<?xml version="1.0" encoding="UTF-8"?>
<svg width="28px" height="28px" viewBox="0 0 28 28" version="1.1" xmlns="http://www.w3.org/2000/svg" xmlns:xlink="http://www.w3.org/1999/xlink">
    <title>ico_editor</title>
    <g id="*Push_디자인0718" stroke="none" stroke-width="1" fill="none" fill-rule="evenodd">
        <g id="Dictionary_detail-Copy-3" transform="translate(-311.000000, -766.000000)">
            <g id="Group-9" transform="translate(0.000000, 761.000000)">
                <g id="Group-6" transform="translate(41.000000, 5.000000)">
                    <g id="Group-18" transform="translate(260.000000, 0.000000)">
                        <g id="ico_editor" transform="translate(10.000000, 0.000000)">
                            <rect id="Rectangle" x="0" y="0" width="28" height="28"></rect>
                            <g id="Group-13" transform="translate(14.000000, 13.500000) scale(-1, 1) translate(-14.000000, -13.500000) translate(4.307692, 4.500000)" fill="#4F4F4F">
                                <polygon id="Combined-Shape" points="10.1418928 18 7.17635417 15.2278196 4.52358914 12.7480193 2.84458872 11.7078214 1.33843482e-13 8.12735153 0.372413493 6.02255639 1.67426595 3 4.44954846 1.40238698e-15 7.52369729 2.10538475 10.1418928 5.08959944 13.1723095 9.64468796e-15 16.6257898 -2.35338065e-15 18.0158485 2.10538475 19.3846154 4.47216417 18.7543605 9 15.6982977 12.216968 13.1723095 15.1578947"></polygon>
                            </g>
                        </g>
                    </g>
                </g>
            </g>
        </g>
    </g>
</svg>