<?xml version="1.0" encoding="UTF-8"?>
<svg width="80px" height="80px" viewBox="0 0 80 80" version="1.1" xmlns="http://www.w3.org/2000/svg" xmlns:xlink="http://www.w3.org/1999/xlink">
    <title>paint_6</title>
    <g id="Contents_ì½˜í…ì¸ " stroke="none" stroke-width="1" fill="none" fill-rule="evenodd">
        <g id="Artboard-Copy-6" transform="translate(-1.000000, 0.000000)">
            <g id="paint_6" transform="translate(1.000000, 0.000000)">
                <rect id="area" x="0" y="0" width="80" height="80"></rect>
                <g transform="translate(12.000000, 10.000000)">
                    <g id="con_chair" fill="#EAA496">
                        <path d="M21.1983634,0 L52.0091433,1.04369355 L49.6112016,16.0388871 L49.291,18.037 L51.6819858,18.0376344 L51.6819858,19.0828234 L48.901,20.48 L48.032,25.913 L50.0088753,32.0301769 L50.7423022,37.5510753 L53,47.5537634 L49.5554619,49.1935484 L48.278,40.788 L43.9473931,43.9462366 C43.1611395,43.9017876 42.3938961,43.8578623 41.645663,43.8144607 L40.5698394,61 L38.2213597,59.4344169 L39.2510275,43.6734672 C26.7546427,42.9261329 20.2055617,42.3426404 19.6037847,41.9229896 C19.2108129,41.6489497 17.9095434,39.3000674 15.6999762,34.8763427 L6.685,33.165 L3.30218083,50.5053763 L0.496084939,50.5053763 L4.824,32.812 L0,31.8973941 L5.765,28.962 L7.63867051,21.3064411 L3.50657987,21.62715 L4.54816852,19.353774 L17.368,18.961 L17.6049495,17.6540551 L18.040323,15.2413843 L21.1983634,0 Z M46.634,29.965 L42.317,33.099 L41.7249732,42.54682 C42.4613395,42.5566979 43.2177774,42.5657094 43.9942867,42.5738545 L44.5339259,42.5793437 L48.089,39.546 L46.634,29.965 Z M39.823,34.91 L34.8644042,38.511531 L19.329,35.564 L21.4635493,41.1286727 C21.4635493,41.8462655 27.4181121,42.3068366 39.3272377,42.5103859 L39.823,34.91 Z M9.95518528,23.0215003 L8.57677285,23.469529 L7.696,27.979 L11.4174359,26.085996 C10.9497508,25.1095711 10.4623339,24.0880725 9.95518528,23.0215003 Z M20.2748648,23.6129032 L32.8754406,26.2365591 L44.4845205,27.3010956 L46.2850375,26.5919736 L37.9350688,25.4569994 C38.634373,24.2568252 38.1944003,24.0408369 36.6151506,24.8090346 C35.035901,25.5772323 29.589139,25.1785219 20.2748648,23.6129032 Z M17.054,20.705 L14.011,21.697 L14.995,24.263 L16.5555303,23.469529 L17.054,20.705 Z" id="Combined-Shape"></path>
                    </g>
                    <polygon id="Path-87" fill="#524534" points="40.445266 25.4665514 38 59.4348377 40.445266 61 42.8390118 24.6060808 45.8433558 22.2392331 51.1562804 49.1967213 54 47.557377 51.555718 37.557377 51.1562804 32.4754098 48.4826818 25.4665514 47.4698002 21 43.9274361 22.2392331"></polygon>
                    <polygon id="Path-88" fill="#524534" points="7.78784644 21.3296703 5.45439244e-18 51 2.87881997 51 8.70144553 23.967033 10.8242907 23.0185654 19.6029038 42.3727765 44.5774124 44.4065934 50 40.8659958 49.3470249 39.3519359 45.1791461 43.0325595 21.6485814 41.4395604 12.4555627 21"></polygon>
                    <polygon id="Path-89" fill="#EAA496" points="16.4808699 24 9.14228599 28.4059198 2.55540353e-13 33.3206766 28 38 24.5004433 26.6517289"></polygon>
                    <polygon id="Path-77" stroke="#CD674B" fill="#CD674B" points="50.3932766 18 36 25.0854582 40.0260902 27 53 18.7719206"></polygon>
                    <polygon id="Path-86" stroke="#CD674B" fill="#CD674B" points="17.4864325 19 3.56685365 19 3 21.3928821 13.4480173 22 19 20.4182665"></polygon>
                </g>
            </g>
        </g>
    </g>
</svg>