<?xml version="1.0" encoding="UTF-8"?>
<svg width="186px" height="138px" viewBox="0 0 186 138" version="1.1" xmlns="http://www.w3.org/2000/svg" xmlns:xlink="http://www.w3.org/1999/xlink">
    <title>img_sq</title>
    <g id="*Push_디자인0718" stroke="none" stroke-width="1" fill="none" fill-rule="evenodd">
        <g id="Dictionary_detail-Copy-4" transform="translate(-102.000000, -369.000000)">
            <g id="img_sq" transform="translate(102.000000, 369.000000)">
                <g id="Group-10">
                    <g id="Group-30" transform="translate(53.817259, 0.000000)">
                        <polygon id="Path-60" fill="#D8BB96" points="73.1577435 74.4349984 75.7252052 71.041257 77.3367564 63.7716707 77.3367564 59.5733884 75.7252052 51.731977 75.24725 41.2271897 80.706825 27.9967418 96.9904994 19.9518072 106.464786 19.9518072 117.912186 22.5649723 126.527144 29.7188442 132.182741 46.2337188 126.527144 58.2619332 117.912186 65.8000759 107.997091 66.9467003 103.756786 65.8000759 104.736222 74.4349984 100.780709 86.1305372 84.8366916 95.6024096 81.9887717 95.6024096"></polygon>
                        <polygon id="Path-62" fill="#BDA07F" points="121.008793 25.0188812 111.23505 23.2771084 99.8591825 27.3749356 92.3227792 34.5019755 90.7682705 38.4306953 88.4062206 50.5044407 88.9517078 64.4938311 86.7143684 72.8301356 80.5410351 81.0081268 77.3144335 83.566652 78.3020761 86.4578313 83.410673 82.4427588 90.7682705 72.8301356 91.6418921 68.0575146 92.3227792 59.3440713 91.6418921 50.5044407 94.5594707 36.7311176 104.224051 28.6381706 115.40103 27.3749356 123.869361 27.3749356"></polygon>
                        <polygon id="Path-63" fill="#BDA07F" points="113.061967 21.5579362 106.981754 22.2598515 99.330864 24.6240692 92.1038282 29.8367459 86.5229102 42.5176096 85.7496484 51.6855826 85.7496484 64.1233375 83.5251112 73.073896 80.9972487 78.1439356 75.5880563 82.3012048 74.8204195 79.8878069 78.7489332 76.7762009 82.2724523 70.7923617 84.1075013 61.7136604 83.5251112 49.4165661 84.1075013 38.6733265 89.8237484 28.1277363 97.300597 23.1627804 106.981754 19.9518072"></polygon>
                        <polygon id="Path-66" fill="#BDA07F" points="99.7605593 19.9518072 91.2530648 24.6429546 85.2465733 30.4910787 80.1487464 45.9098763 81.1628333 56.6196028 81.1628333 58.7326855 81.1628333 63.4703563 80.1487464 69.6488468 74.2196002 78.1445783 73.1577435 76.7333362 77.6071045 70.4410966 79.1292287 65.1465556 79.1292287 57.1261199 77.6071045 46.6416315 80.6967314 33.1672776 91.2530648 22.364849 96.332427 19.9518072"></polygon>
                        <polygon id="Path-49" fill="#CCA079" points="28.6579074 1.24354787 27.7205663 -2.91180731e-17 25.6809363 0 23.2207226 1.24354787 22.3418874 4.98795181 29.4648387 3.04820564"></polygon>
                        <path d="M61.5599784,31.1993161 L57.5518391,18.9402562 L58.2061387,17.0845526 L58.2061387,9.58737222 L47.1321177,1.66714261 L35.1839643,1.6626506 C26.5291755,2.68370988 21.2990722,4.65004096 19.4936542,7.56164384 C17.8018504,10.2900209 16.3750906,12.0524686 15.2133748,12.848987 C15.1613643,12.8846474 15.0845439,12.9337819 14.9829135,12.9963903 L7.48204195,23.7124876 L24.0175404,22.1178039 L40.6434861,28.9545548 L56.0392523,30.4477855 L61.5599784,31.1993161 Z" id="Path-31" fill="#F9D68F"></path>
                        <path d="M11.0037134,29.1564355 L7.48204195,24.6045292 L7.48204195,22.414205 C11.8145318,20.8602166 13.9807767,20.0832223 13.9807767,20.0832223 C13.9807767,20.0832223 24.2051704,17.1213964 32.085632,21.5877242 C39.9660935,26.054052 55.049143,25.964228 57.3767177,27.5603318 C58.9284341,28.6244009 60.3091988,29.8182708 61.5190116,31.1419412 L61.5190116,32.4216867 L57.7595982,32.7667781 L11.0037134,29.1564355 Z" id="Path-30" fill="#9C8569"></path>
                        <path d="M15.102395,22.4457831 L10.2669016,25.3626714 L9.1829742,32.7667781 L9.1829742,38.2192588 L7.94602174,42.7178529 L7.94602174,48.8587364 L11.1443433,55.7053759 L18.5636058,58.7861674 L21.0944046,59.5001769 L10.2669016,75.4321578 L0.932373763,81.0961424 L0,85.4327072 L10.2669016,82.2194191 L13.4789562,84.7746407 L21.0944046,84.7746407 L21.7722271,92.0280939 L21.7722271,96.0456855 L24.1195921,106.214555 L29.1806993,114.909767 L26.3109892,128.923001 L21.0944046,132.044032 L21.0944046,133.969159 L37.9992581,133.969159 L41.8346936,130.848618 L46.1605939,120.526642 L51.992712,120.526642 L62.1845724,122.275597 L63.5289367,128.923001 L59.005379,134.669428 L59.005379,136.886047 L76.7175377,138 L81.0973892,119.890167 L85.2692836,109.289457 L87.2904894,94.8011988 L85.2692836,81.0961424 L76.7175377,61.8208304 L64.7085048,47.8767893 L57.7595982,38.9371942 L57.063138,33.9082118 L57.7595982,32.7667781 L53.7471049,30.0559957 C46.3737827,29.4743192 40.6838994,28.2450451 36.6774552,26.3681734 C32.671011,24.4913017 28.2556825,23.1838383 23.4314698,22.4457831 L15.102395,22.4457831 Z" id="Path-29" fill="#D8BB96"></path>
                        <g id="Group-24" transform="translate(1.662676, 38.240964)" fill="#C4A680">
                            <polygon id="Path-61" points="117.088431 9.38651492 118.049995 9.86322043 117.569213 7.20985208 113.137193 4.02771925 108.881614 3.2845852 103.132158 5.43533677 97.1866962 12.98953 97.1866962 21.672432 102.128915 27.7233456 103.132158 28.0647131 102.128915 25.7699417 99.7546717 22.7293384 98.4012736 17.6220298 99.1488333 12.2007412 100.670267 10.227628 103.826883 6.48809272 109.753905 4.91985366 113.649172 5.99543697"></polygon>
                            <path d="M49.8897899,19.2576091 L36.5514262,27.7566288 L32.6380933,30.7602753 L25.2259708,36.8203264 L22.9686164,36.8203264 L24.4443468,25.6943869 L23.3269179,26.2521952 L21.7373029,38.1972611 L19.7046707,38.5869025 L15.6491458,38.1972611 C13.8657382,37.9375001 12.9740344,37.9375001 12.9740344,38.1972611 C12.9740344,38.457022 11.7907615,39.2608522 9.42421568,40.6087514 L8.8247626,43.8288632 L9.42421568,44.2245613 L10.0899386,41.0079057 L13.5489676,38.8591914 L18.5297957,39.1072358 L22.5597779,39.1072358 L24.6899623,37.8397878 L28.2778875,36.1908446 L36.5514262,29.4677577 L38.9920877,27.7566288 L44.860929,24.2366196 L49.8897899,19.2576091 Z" id="Path-50"></path>
                            <polygon id="Path-52" points="17.8334385 46.4319893 25.5739213 46.4319893 36.4183871 47.8768304 40.9599201 47.8768304 49.8897899 46.0567529 60.355197 39.7933616 61.7232786 36.9728548 59.9466196 38.6541793 54.1141028 42.1099336 49.8897899 45.0995582 41.4710935 46.7629856 34.5236724 46.7629856 24.9868548 45.4864579"></polygon>
                            <polygon id="Path-53" points="9.57214521 44.5274534 11.4642498 43.6223414 14.4648338 43.6223414 12.0184895 42.7240665 9.57214521 43.2306155"></polygon>
                            <polygon id="Path-54" points="11.067719 40.4296145 13.8546782 40.4296145 15.3345916 41.302753 15.3345916 40.4296145 14.4648338 39.6121783 11.9103379 39.9311092"></polygon>
                            <polygon id="Path-55" points="2.38063803 43.1998501 0.794597064 44.2245613 -2.00943077e-17 46.7058997 0.794597064 46.3435044 1.74002042 44.5274534"></polygon>
                            <polygon id="Path-56" points="17.8309783 20.7289056 21.5453227 21.8165162 26.3879614 21.8165162 28.6811608 20.7289056 31.7935182 19.5361446 36.9074759 19.5351545 44.5015613 16.6726642 47.9159658 12.8880242 47.2536838 11.8406126 44.5015613 15.2181986 39.243116 17.7173807 34.3982722 18.2738505 31.3691141 18.2738505 28.6811608 19.2576091 26.3879614 20.7289056"></polygon>
                            <polygon id="Path-57" points="44.8358056 82.3012048 40.8127045 81.3065767 37.2462858 79.0592047 31.7935182 73.4340418 32.6234234 73.4340418 38.0736125 78.5041409 42.6414058 81.0217583 45.8842241 81.7725425 46.6898178 82.3012048"></polygon>
                            <polygon id="Path-58" points="55.8913292 0.945587985 55.8913292 3.34609042 55.3932504 5.73293751 56.4644828 5.73293751 56.8520742 1.96743307 58.1396779 3.58838111 58.8140912 5.03644102 59.1273904 4.53575955 56.0324671 0.151951158 55.3932504 -1.0894364e-17"></polygon>
                        </g>
                        <polygon id="Path-32" fill="#545454" points="12.3780684 33.253012 13.3014079 33.7329039 13.3014079 35.8625084 12.3780684 37.4096386 11.1842971 36.986316 10.8073939 35.8625084 11.1842971 33.7329039"></polygon>
                        <polygon id="Path-35" fill="#545454" points="30.1464329 34.9156627 29.0968298 35.5915564 29.0968298 36.9649351 29.6216313 38.2409639 30.9453695 38.2409639 31.5908438 37.5305999 31.5908438 35.5915564"></polygon>
                        <polygon id="Path-40" fill="#FFFFFF" points="16.6267599 50.2115869 17.8398639 52.373494 18.8483112 52.373494 19.9521119 50.9039126 18.8483112 49.7598474 17.8398639 49.0481928"></polygon>
                        <polygon id="Path-37" fill="#545454" points="19.5820044 43.0124779 17.242752 41.5662651 14.3434139 42.2893715 13.3014079 43.0124779 15.2366049 46.0215981 17.242752 47.154758 17.4791925 48.797157 14.8311122 51.163782 14.8311122 51.5421687 18.1317518 49.218088 19.7713913 50.5381225 21.2634829 51.163782 23.2774638 50.5381225 22.8026475 50.1963497 21.2634829 50.7525202 18.7074387 49.0177429 18.1317518 46.8504317 19.1962319 45.2988529"></polygon>
                        <polygon id="Path-42" fill="#CCA079" points="46.1885649 10.7098992 48.9225555 4.87716875 52.5701712 1.6626506 56.5309836 4.87716875 56.5309836 9.16146965 54.0369696 13.9777404"></polygon>
                        <polygon id="Path-47" fill="#BD946E" points="48.1436959 11.5710563 49.5978418 6.54231606 50.6771592 4.98795181 52.5591946 4.98795181 54.0369696 6.85245885 54.0369696 8.1846426 51.6932299 13.0661359"></polygon>
                        <polygon id="Path-70" fill="#BDA07F" points="16.3648953 22.4457831 14.9640839 25.2705924 14.9640839 28.2650602 16.3648953 28.2650602 17.9275686 23.9535552 18.2894359 22.4457831 16.9511228 22.4457831"></polygon>
                        <polygon id="Path-111" fill="#BDA07F" points="19.9919484 22.4457831 18.2965199 25.5124364 17.4580979 29.2061074 17.8988323 31.606131 18.2965199 32.4216867 19.528824 32.0392423 19.9919484 28.8251211 20.9930992 25.1898804 23.2774638 22.4457831"></polygon>
                        <polygon id="Path-114" fill="#BDA07F" points="26.9557041 23.2771084 24.4733385 26.3503589 23.2774638 29.1974872 24.1015986 29.9277108 25.116584 28.9269447 26.9557041 26.3503589 29.9281678 24.010347"></polygon>
                        <g id="Group-34" transform="translate(7.482042, 7.561644)" fill="#DEB167">
                            <polygon id="Path-116" points="7.50087157 5.43474651 13.0770357 4.19832589 24.5021238 3.44758323 33.7827536 4.74155065 44.251787 8.79281607 50.0697971 11.3786124 50.4193028 10.3972369 45.7846278 8.79281607 40.0049495 6.03551808 31.4400506 3.44758323 20.4577593 2.43936466 11.6246485 3.44758323 7.47697437 4.87114027"></polygon>
                            <path d="M10.3943302,2.43936466 L15.4545816,1.29812157 L25.2456025,0.799184626 L35.2911952,2.67953765 L42.727752,5.90726946 L50.7546914,9.04148851 L50.7546914,8.0543965 L42.727752,4.87176085 L36.2736709,2.04804897 L26.2503954,0 L24.1466104,0 L14.1523991,0 L11.4865401,0.799184626 C11.033776,1.27092707 10.8073939,1.58040723 10.8073939,1.72762509 C10.8073939,1.87484296 10.669706,2.11208948 10.3943302,2.43936466 Z" id="Path-133"></path>
                            <path d="M0,14.8841393 C3.63368693,13.2802905 5.4505304,12.4783661 5.4505304,12.4783661 C5.4505304,12.4783661 7.90099696,11.6289555 13.6029913,10.8409192 C13.6297057,10.8372271 14.0300483,10.8372271 14.8040192,10.8409192 C21.6045924,12.0957569 25.6819085,13.2509642 27.0359675,14.3065409 C28.3900265,15.3621176 31.6701087,16.4093887 36.8762141,17.4483543 L47.5411678,18.5542573 L53.0942746,21.4832843 L52.6620326,20.2093735 L47.6735648,18.0015151 L32.8852943,15.7606988 L26.5072603,12.6766818 C19.0150325,10.7522725 14.9958529,9.79006779 14.4497215,9.79006779 C13.9035902,9.79006779 10.8679663,10.4322087 5.34285005,11.7164906 L2.28700004,12.8446468 L0,14.8841393 Z" id="Path-134"></path>
                        </g>
                    </g>
                    <g id="Group-38" transform="translate(0.000000, 81.287671)">
                        <polygon id="Path-135" fill="#826E5A" points="64.6547126 4.99922782e-14 41.1675729 8.54652167 26.8547753 6.52499717 26.8547753 8.54652167 38.6833101 10.7330293 29.1152086 15.2594724 24.5482234 15.2594724 24.5482234 17.9589041 29.1152086 17.0839159 56.4248824 5.06454361 66.0913706 2.70350669"></polygon>
                        <polygon id="Path-137" fill="#F2F2F2" points="25.3866519 13.2328767 26.4365482 21.6739784 10.3857868 25.5205479 10.3857868 14.2261815"></polygon>
                        <polygon id="Path-139" fill="#D8D8D8" points="10.3857868 14.2261815 8.00227573 15.1638991 6.60913706 20.1197236 8.35030341 25.5205479 10.3857868 25.5205479 13.2182741 21.0475666"></polygon>
                        <polygon id="Path-140" fill="#826E5A" points="9.6931628 19.8493151 -5.20677449e-16 22.676902 0 24.5753425 10.3857868 21.6425346"></polygon>
                    </g>
                </g>
                <polygon id="Path-149" fill="#494133" points="63.723503 25.620707 66 21 61 22.77953 61 24.8874825 63.5 28"></polygon>
                <polygon id="Path-164" fill="#494133" points="111 33 112.494561 29 115 31.3823919 115 32.6438685"></polygon>
            </g>
        </g>
    </g>
</svg>