<?xml version="1.0" encoding="UTF-8"?>
<svg width="80px" height="80px" viewBox="0 0 80 80" version="1.1" xmlns="http://www.w3.org/2000/svg" xmlns:xlink="http://www.w3.org/1999/xlink">
    <title>paint_13</title>
    <g id="Contents_ì½˜í…ì¸ " stroke="none" stroke-width="1" fill="none" fill-rule="evenodd">
        <g id="paint_13">
            <rect id="area" x="0" y="0" width="80" height="80"></rect>
            <g id="Group-35" transform="translate(15.023902, 14.028759)">
                <path d="M29.2637311,6.48370246e-14 L36.0534002,0.775256751 L41.6605273,4.23129048 C41.5494585,4.76898365 41.6867648,5.54768628 42.0724461,6.56739837 C42.4378285,7.5334414 43.4000817,8.09470082 44.9592059,8.25117664 L45.2245865,8.27350795 L46.643855,6.91358467 L49.9162568,9.32748653 L45.5208237,15.7025154 L42.664013,13.7179301 C42.1206401,12.5485633 41.6538353,11.8075616 41.2635985,11.4949249 C40.8977516,11.2018281 40.0565532,11.1397935 38.7400035,11.3088214 L38.4703555,11.3457078 L35.4811871,12.5145201 L34.9177373,12.1020494 L33.3942863,14.7091614 L22.1064432,30.1514926 L22.3772001,30.7999464 L17.3245489,37.2740144 L5.85569607,52 L-7.60280727e-13,47.660969 L6.60846034,39.7886414 L16.0299801,27.4163555 L16.8277639,27.2756847 L17.296,26.683 L20.9760983,28.9712408 L18.102,25.662 L27.1007056,14.2879831 L28.4680749,11.2466226 L30.4700398,8.84185431 L29.6074661,8.20942962 L31.4658486,4.89222815 L20.485619,2.81152245 L20.2695128,1.58592335 L29.2637311,6.48370246e-14 Z" id="Combined-Shape-Copy-11" fill="#524534"></path>
                <polygon id="Path-100" fill="#CD674B" points="17.7258547 26.9712408 22.1064432 30.1514926 22.1064432 30.4536494 5.85569607 52 9.09205207e-13 47.660969 15.0645196 26.9712408"></polygon>
            </g>
        </g>
    </g>
</svg>